<svg width="33px" height="34px" viewBox="0 0 33 34" version="1.1" xmlns="http://www.w3.org/2000/svg">
  <defs>
    <path d="M8.32333476,0 L8.61442004,0.169927909 L16.3567463,4.69040094 L16.6468632,4.85954757 L16.6468632,14.5757129 L16.3567463,14.7452502 L8.61442004,19.2653326 L8.32333476,19.4352605 L8.03224948,19.2653326 L0.289729595,14.7452502 L0,14.5757129 L0,4.85954757 L0.289729595,4.69040094 L8.03224948,0.169927909 L8.32333476,0 Z M8.32333476,1.35434497 L1.16201709,5.53535282 L1.16201709,13.900103 L8.32333476,18.0811108 L15.4848461,13.900103 L15.4848461,5.53535282 L8.32333476,1.35434497 Z" id="path-1"></path>
    <linearGradient x1="15.9919028%" y1="46.5258856%" x2="15.9919028%" y2="325.544959%" id="linearGradient-3">
      <stop stopColor="#03D498" offset="0%"></stop>
      <stop stopColor="#3C67E9" offset="100%"></stop>
    </linearGradient>
    <path d="M8.03224948,0.169927909 L0.289729595,4.69040094 L0,4.85954757 L0,5.19725487 L0,14.2378103 L0,14.5757129 L0.289729595,14.7452502 L8.03224948,19.2653326 L8.32333476,19.4352605 L8.61442004,19.2653326 L16.3567463,14.7452502 L16.6468632,14.5757129 L16.6468632,14.2378103 L16.6468632,5.19725487 L16.6468632,4.85954757 L16.3567463,4.69040094 L8.61442004,0.169927909 L8.32333476,0 L8.03224948,0.169927909 Z M1.16201709,13.8999077 L1.16201709,5.53535282 L8.32333476,1.35434497 L15.4848461,5.53535282 L15.4848461,13.8999077 L8.32333476,18.0811108 L1.16201709,13.8999077 Z" id="path-4"></path>
    <linearGradient x1="10.5994517%" y1="73.9017135%" x2="89.3996094%" y2="50.000201%" id="linearGradient-6">
      <stop stopColor="#03D498" offset="0%"></stop>
      <stop stopColor="#3C67E9" offset="100%"></stop>
    </linearGradient>
    <path d="M8.32333476,0 L8.61442004,0.169927909 L16.3567463,4.69040094 L16.6468632,4.85954757 L16.6468632,14.5757129 L16.3567463,14.7452502 L8.61442004,19.2653326 L8.32333476,19.4352605 L8.03224948,19.2653326 L0.289729595,14.7452502 L0,14.5757129 L0,4.85954757 L0.289729595,4.69040094 L8.03224948,0.169927909 L8.32333476,0 Z M8.32333476,1.35434497 L1.16201709,5.53535282 L1.16201709,13.900103 L8.32333476,18.0811108 L15.4846524,13.900103 L15.4846524,5.53535282 L8.32333476,1.35434497 Z" id="path-7"></path>
    <linearGradient x1="24.0840078%" y1="46.5258856%" x2="24.0840078%" y2="325.544959%" id="linearGradient-9">
      <stop stopColor="#03D498" offset="0%"></stop>
      <stop stopColor="#3C67E9" offset="100%"></stop>
    </linearGradient>
    <path d="M8.03224948,0.169927909 L0.289729595,4.69040094 L0,4.85954757 L0,5.19725487 L0,14.2378103 L0,14.5757129 L0.289729595,14.7452502 L8.03224948,19.2653326 L8.32333476,19.4352605 L8.61442004,19.2653326 L16.3567463,14.7452502 L16.6468632,14.5757129 L16.6468632,14.2378103 L16.6468632,5.19725487 L16.6468632,4.85954757 L16.3567463,4.69040094 L8.61442004,0.169927909 L8.32333476,0 L8.03224948,0.169927909 Z M1.16201709,13.8999077 L1.16201709,5.53535282 L8.32333476,1.35434497 L15.4846524,5.53535282 L15.4846524,13.8999077 L8.32333476,18.0811108 L1.16201709,13.8999077 Z" id="path-10"></path>
    <linearGradient x1="94.3312367%" y1="63.7116728%" x2="10.5994491%" y2="46.3272197%" id="linearGradient-12">
      <stop stopColor="#03D498" offset="0%"></stop>
      <stop stopColor="#3C67E9" offset="100%"></stop>
    </linearGradient>
    <polygon id="path-13" points="0 0 1.16201709 0 1.16201709 9.04055542 0 9.04055542"></polygon>
    <linearGradient x1="24.633603%" y1="52.6566757%" x2="24.633603%" y2="331.675749%" id="linearGradient-15">
      <stop stopColor="#03D498" offset="0%"></stop>
      <stop stopColor="#3C67E9" offset="100%"></stop>
    </linearGradient>
    <linearGradient x1="59.413455%" y1="99.9993519%" x2="59.413455%" y2="-8.34526639%" id="linearGradient-16">
      <stop stopColor="#03D498" offset="0%"></stop>
      <stop stopColor="#3C67E9" offset="100%"></stop>
    </linearGradient>
    <path d="M8.32333476,0 L8.61442004,0.169927909 L16.3567463,4.6900103 L16.6466695,4.85935225 L16.6466695,14.5755176 L16.3567463,14.7448595 L8.61442004,19.2651373 L8.32333476,19.4348698 L8.03224948,19.2651373 L0.289729595,14.7448595 L0,14.5755176 L0,4.85935225 L0.289729595,4.6900103 L8.03224948,0.169927909 L8.32333476,0 Z M8.32333476,1.35414965 L1.16182342,5.5351575 L1.16182342,13.8997123 L8.32333476,18.0809155 L15.4848461,13.8997123 L15.4848461,5.5351575 L8.32333476,1.35414965 Z" id="path-17"></path>
    <linearGradient x1="20.040992%" y1="27.6021807%" x2="20.040992%" y2="306.621254%" id="linearGradient-19">
      <stop stopColor="#03D498" offset="0%"></stop>
      <stop stopColor="#3C67E9" offset="100%"></stop>
    </linearGradient>
    <path d="M8.03224948,0.169927909 L0.289729595,4.6900103 L0,4.85935225 L0,5.19745019 L0,14.2378103 L0,14.5755176 L0.289729595,14.7448595 L8.03224948,19.2651373 L8.32333476,19.4348698 L8.61442004,19.2651373 L16.3567463,14.7448595 L16.6466695,14.5755176 L16.6466695,14.2378103 L16.6466695,5.19745019 L16.6466695,4.85935225 L16.3567463,4.6900103 L8.61442004,0.169927909 L8.32333476,0 L8.03224948,0.169927909 Z M1.16182342,13.8997123 L1.16182342,5.5351575 L8.32333476,1.35414965 L15.4848461,5.5351575 L15.4848461,13.8997123 L8.32333476,18.0809155 L1.16182342,13.8997123 Z" id="path-20"></path>
    <linearGradient x1="31.5189195%" y1="22.7733868%" x2="62.3121011%" y2="96.5170931%" id="linearGradient-22">
      <stop stopColor="#03D498" offset="0%"></stop>
      <stop stopColor="#3C67E9" offset="100%"></stop>
    </linearGradient>
    <polygon id="path-23" points="15.4848461 0 16.066823 1.01448915 8.32469045 5.53476686 8.0334115 5.70449945 7.74232622 5.53476686 0 1.01448915 0.582170563 0 8.0334115 4.3503498"></polygon>
    <linearGradient x1="20.6680163%" y1="46.5258856%" x2="20.6680163%" y2="325.544959%" id="linearGradient-25">
      <stop stopColor="#03D498" offset="0%"></stop>
      <stop stopColor="#3C67E9" offset="100%"></stop>
    </linearGradient>
    <polygon id="path-26" points="8.0334115 4.3503498 0.582170563 0 0 1.01448915 7.74232622 5.53476686 8.0334115 5.70449945 8.32469045 5.53476686 16.066823 1.01448915 15.4848461 0"></polygon>
    <linearGradient x1="50.0004831%" y1="8.89200849%" x2="50.0004831%" y2="95.7433404%" id="linearGradient-28">
      <stop stopColor="#03D498" offset="0%"></stop>
      <stop stopColor="#3C67E9" offset="100%"></stop>
    </linearGradient>
    <path d="M0,1.66529351 C0,2.58505274 0.737299845,3.33078234 1.64677189,3.33078234 L1.64677189,3.33078234 C2.5564376,3.33078234 3.29373745,2.58505274 3.29373745,1.66529351 L3.29373745,1.66529351 C3.29373745,0.745534287 2.5564376,0 1.64677189,0 L1.64677189,0 C0.737299845,0 0,0.745534287 0,1.66529351 L0,1.66529351 Z" id="path-29"></path>
  </defs>
  <g id="home+wallet" stroke="none" strokeWidth="1" fill="none" fillRule="evenodd">
    <g transform="translate(-24.000000, -20.000000)">
      <g transform="translate(24.000000, 20.000000)">
        <g transform="translate(0.000000, 13.564740)">
          <mask id="mask-2" fill="white">
            <use href="#path-1"></use>
          </mask>
          <g id="Clip-4"></g>
          <polygon id="Fill-3" fill="url(#linearGradient-3)" mask="url(#mask-2)" points="-31.2166208 39.0086118 160.12886 39.0086118 160.12886 -32.6736212 -31.2166208 -32.6736212"></polygon>
        </g>
        <g transform="translate(0.000000, 13.564740)">
          <mask id="mask-5" fill="white">
            <use href="#path-4"></use>
          </mask>
          <g id="Clip-6"></g>
          <path d="M8.03224948,0.169927909 L0.289729595,4.69040094 L0,4.85954757 L0,5.19725487 L0,14.2378103 L0,14.5757129 L0.289729595,14.7452502 L8.03224948,19.2653326 L8.32333476,19.4352605 L8.61442004,19.2653326 L16.3567463,14.7452502 L16.6468632,14.5757129 L16.6468632,14.2378103 L16.6468632,5.19725487 L16.6468632,4.85954757 L16.3567463,4.69040094 L8.61442004,0.169927909 L8.32333476,0 L8.03224948,0.169927909 Z M1.16201709,13.8999077 L1.16201709,5.53535282 L8.32333476,1.35434497 L15.4848461,5.53535282 L15.4848461,13.8999077 L8.32333476,18.0811108 L1.16201709,13.8999077 Z" id="Fill-5" fill="url(#linearGradient-6)" mask="url(#mask-5)"></path>
        </g>
        <g transform="translate(15.483878, 13.564740)">
          <mask id="mask-8" fill="white">
            <use href="#path-7"></use>
          </mask>
          <g id="Clip-8"></g>
          <polygon id="Fill-7" fill="url(#linearGradient-9)" mask="url(#mask-8)" points="-46.7004986 39.0086118 144.644983 39.0086118 144.644983 -32.6736212 -46.7004986 -32.6736212"></polygon>
        </g>
        <g transform="translate(15.483878, 13.564740)">
          <mask id="mask-11" fill="white">
            <use href="#path-10"></use>
          </mask>
          <g id="Clip-10"></g>
          <path d="M8.03224948,0.169927909 L0.289729595,4.69040094 L0,4.85954757 L0,5.19725487 L0,14.2378103 L0,14.5757129 L0.289729595,14.7452502 L8.03224948,19.2653326 L8.32333476,19.4352605 L8.61442004,19.2653326 L16.3567463,14.7452502 L16.6468632,14.5757129 L16.6468632,14.2378103 L16.6468632,5.19725487 L16.6468632,4.85954757 L16.3567463,4.69040094 L8.61442004,0.169927909 L8.32333476,0 L8.03224948,0.169927909 Z M1.16201709,13.8999077 L1.16201709,5.53535282 L8.32333476,1.35434497 L15.4846524,5.53535282 L15.4846524,13.8999077 L8.32333476,18.0811108 L1.16201709,13.8999077 Z" id="Fill-9" fill="url(#linearGradient-12)" mask="url(#mask-11)"></path>
        </g>
        <g transform="translate(15.482909, 18.636599)">
          <mask id="mask-14" fill="white">
            <use href="#path-13"></use>
          </mask>
          <g id="Clip-12"></g>
          <polygon id="Fill-11" fill="url(#linearGradient-15)" mask="url(#mask-14)" points="-46.6995302 33.936752 144.645951 33.936752 144.645951 -37.745481 -46.6995302 -37.745481"></polygon>
        </g>
        <polygon id="Fill-13" fill="url(#linearGradient-16)" points="15.4829094 27.6771547 16.6449265 27.6771547 16.6449265 18.6365993 15.4829094 18.6365993"></polygon>
        <g transform="translate(7.747749, 0.000000)">
          <mask id="mask-18" fill="white">
            <use href="#path-17"></use>
          </mask>
          <g id="Clip-16"></g>
          <polygon id="Fill-15" fill="url(#linearGradient-19)" mask="url(#mask-18)" points="-38.9643698 52.5733513 152.381111 52.5733513 152.381111 -19.1088817 -38.9643698 -19.1088817"></polygon>
        </g>
        <g transform="translate(7.747749, 0.000000)">
          <mask id="mask-21" fill="white">
            <use href="#path-20"></use>
          </mask>
          <g id="Clip-18"></g>
          <path d="M8.03224948,0.169927909 L0.289729595,4.6900103 L0,4.85935225 L0,5.19745019 L0,14.2378103 L0,14.5755176 L0.289729595,14.7448595 L8.03224948,19.2651373 L8.32333476,19.4348698 L8.61442004,19.2651373 L16.3567463,14.7448595 L16.6466695,14.5755176 L16.6466695,14.2378103 L16.6466695,5.19745019 L16.6466695,4.85935225 L16.3567463,4.6900103 L8.61442004,0.169927909 L8.32333476,0 L8.03224948,0.169927909 Z M1.16182342,13.8997123 L1.16182342,5.5351575 L8.32333476,1.35414965 L15.4848461,5.5351575 L15.4848461,13.8997123 L8.32333476,18.0809155 L1.16182342,13.8997123 Z" id="Fill-17" fill="url(#linearGradient-22)" mask="url(#mask-21)"></path>
        </g>
        <g transform="translate(8.039609, 13.734667)">
          <mask id="mask-24" fill="white">
            <use href="#path-23"></use>
          </mask>
          <g id="Clip-20"></g>
          <polygon id="Fill-19" fill="url(#linearGradient-25)" mask="url(#mask-24)" points="-39.2562298 38.8386839 152.089251 38.8386839 152.089251 -32.8435491 -39.2562298 -32.8435491"></polygon>
        </g>
        <g transform="translate(8.039609, 13.734667)">
          <mask id="mask-27" fill="white">
            <use href="#path-26"></use>
          </mask>
          <g id="Clip-22"></g>
          <polygon id="Fill-21" fill="url(#linearGradient-28)" mask="url(#mask-27)" points="8.0334115 4.3503498 0.582170563 0 0 1.01448915 7.74232622 5.53476686 8.0334115 5.70449945 8.32469045 5.53476686 16.066823 1.01448915 15.4848461 0"></polygon>
        </g>
        <polygon id="Stroke-23" stroke="#FFFFFF" strokeWidth="1.1616" strokeLinecap="round" points="16.0710837 9.73009162 23.8136036 14.2503693 23.8136036 23.2907294 16.0710837 27.8110071 8.32856384 23.2907294 8.32856384 14.2503693"></polygon>
        <g transform="translate(14.489385, 16.878724)">
          <mask id="mask-30" fill="white">
            <use href="#path-29"></use>
          </mask>
          <g id="Clip-25"></g>
          <polygon id="Fill-24" fill="#03D498" mask="url(#mask-30)" points="-0.193669515 3.52610178 3.48740696 3.52610178 3.48740696 -0.195319436 -0.193669515 -0.195319436"></polygon>
        </g>
      </g>
    </g>
  </g>
</svg>