<svg width="18" height="19" viewBox="0 0 18 19" fill="none" xmlns="http://www.w3.org/2000/svg">
<path d="M11.2641 15.1719V18.1681H6.75848V15.1719C8.21106 15.7162 9.81157 15.7162 11.2641 15.1719Z" fill="#9199B1"/>
<path d="M11.2641 0V2.99626C9.81426 2.43731 8.20836 2.43731 6.75848 2.99626V0H11.2641Z" fill="#9199B1"/>
<path d="M4.85484 4.04305C3.63461 5.02693 2.83017 6.4347 2.60201 7.98549L0 6.48737L2.25283 2.54492L4.85484 4.04305Z" fill="#9199B1"/>
<path d="M18 11.6368L15.7472 15.5905L13.1451 14.0924C14.3704 13.108 15.1757 11.6946 15.398 10.1387L18 11.6368Z" fill="#9199B1"/>
<path d="M4.85484 14.0924L2.25283 15.5905L0 11.6368L2.60201 10.1387C2.82424 11.6946 3.62955 13.108 4.85484 14.0924Z" fill="#9199B1"/>
<path d="M18 6.48737L15.398 7.98549C15.1698 6.4347 14.3654 5.02693 13.1451 4.04305L15.7472 2.54492L18 6.48737Z" fill="#9199B1"/>
<path d="M15.8597 8.20119C15.8745 8.09658 15.8745 7.99041 15.8597 7.88579C15.6184 6.21853 14.7478 4.70699 13.4266 3.66174C13.366 3.59004 13.2936 3.5291 13.2126 3.48151C12.7563 3.11769 12.2473 2.82525 11.7032 2.61418L11.4329 2.50154C9.86367 1.91615 8.136 1.91615 6.56678 2.50154L6.29645 2.61418C5.7559 2.82549 5.2507 3.11795 4.7983 3.48151C4.71579 3.53168 4.6401 3.59226 4.57304 3.66174C3.25627 4.71076 2.3867 6.22043 2.13998 7.88579C2.13998 7.97591 2.13996 8.07728 2.08364 8.1674C2.00858 8.73942 2.00858 9.31879 2.08364 9.89081C2.08364 9.98092 2.08366 10.0936 2.13998 10.1837C2.3867 11.849 3.25627 13.3587 4.57304 14.4077C4.63862 14.4777 4.71023 14.5418 4.78706 14.5992C5.24736 14.9572 5.75539 15.2491 6.29645 15.4666L6.56678 15.5679C8.13255 16.1721 9.86712 16.1721 11.4329 15.5679L11.7032 15.4666C12.2466 15.2467 12.7581 14.955 13.2239 14.5992C13.2991 14.544 13.3672 14.4797 13.4266 14.4077C14.7478 13.3625 15.6184 11.8509 15.8597 10.1837C15.8893 10.0885 15.9082 9.99022 15.916 9.89081C15.9664 9.60834 15.9891 9.32161 15.9836 9.03473C15.9688 8.75358 15.9273 8.47448 15.8597 8.20119ZM11.4892 10.454L11.3766 10.6455C11.1263 11.0452 10.7819 11.3775 10.3734 11.6131C9.96494 11.8488 9.50491 11.9807 9.03363 11.9972H8.85339C8.38211 11.9807 7.92209 11.8488 7.51361 11.6131C7.10514 11.3775 6.7607 11.0452 6.51047 10.6455C6.46705 10.5853 6.42934 10.5212 6.39782 10.454C6.18036 10.0409 6.06814 9.58046 6.07115 9.11358C6.06814 8.64311 6.1803 8.17906 6.39782 7.76189C6.4296 7.6984 6.46733 7.63806 6.51047 7.58167C6.7598 7.18201 7.1043 6.85039 7.51317 6.61647C7.92203 6.38255 8.3825 6.25362 8.85339 6.24123H9.10121C9.5721 6.25362 10.0326 6.38255 10.4414 6.61647C10.8503 6.85039 11.1948 7.18201 11.4441 7.58167C11.4441 7.64925 11.523 7.70557 11.5568 7.76189C11.7725 8.18023 11.8882 8.64294 11.8947 9.11358C11.8747 9.56717 11.7514 10.0102 11.5343 10.409L11.4892 10.454Z" fill="#5A6689"/>
</svg>
