<svg width="88" height="78" viewBox="0 0 88 78" fill="none" xmlns="http://www.w3.org/2000/svg">
<path fill-rule="evenodd" clip-rule="evenodd" d="M64.7049 15.932C64.1281 15.932 63.6577 16.4069 63.6577 16.9964C63.6577 17.5859 64.1281 18.0608 64.7049 18.0608C65.2817 18.0608 65.7521 17.5859 65.7521 16.9964C65.7521 16.4069 65.2817 15.932 64.7049 15.932ZM61.8209 16.9964C61.8209 15.3826 63.1105 14.0715 64.7049 14.0715C66.2993 14.0715 67.5889 15.3826 67.5889 16.9964C67.5889 18.6102 66.2993 19.9213 64.7049 19.9213C63.1105 19.9213 61.8209 18.6102 61.8209 16.9964Z" fill="#8ECD1E"/>
<path fill-rule="evenodd" clip-rule="evenodd" d="M71.2569 15.932C70.6801 15.932 70.2096 16.4069 70.2096 16.9964C70.2096 17.5859 70.6801 18.0608 71.2569 18.0608C71.8337 18.0608 72.3041 17.5859 72.3041 16.9964C72.3041 16.4069 71.8337 15.932 71.2569 15.932ZM68.3729 16.9964C68.3729 15.3826 69.6625 14.0715 71.2569 14.0715C72.8512 14.0715 74.1408 15.3826 74.1408 16.9964C74.1408 18.6102 72.8512 19.9213 71.2569 19.9213C69.6625 19.9213 68.3729 18.6102 68.3729 16.9964Z" fill="#8ECD1E"/>
<path fill-rule="evenodd" clip-rule="evenodd" d="M77.8089 15.932C77.2321 15.932 76.7616 16.4069 76.7616 16.9964C76.7616 17.5859 77.2321 18.0608 77.8089 18.0608C78.3857 18.0608 78.8561 17.5859 78.8561 16.9964C78.8561 16.4069 78.3857 15.932 77.8089 15.932ZM74.9249 16.9964C74.9249 15.3826 76.2145 14.0715 77.8089 14.0715C79.4032 14.0715 80.6928 15.3826 80.6928 16.9964C80.6928 18.6102 79.4032 19.9213 77.8089 19.9213C76.2145 19.9213 74.9249 18.6102 74.9249 16.9964Z" fill="#8ECD1E"/>
<path fill-rule="evenodd" clip-rule="evenodd" d="M71.2569 1.96952C67.3494 1.96952 63.8131 3.5756 61.2511 6.17549C58.689 8.77541 57.1057 12.3649 57.1057 16.3317C57.1057 19.8085 58.3217 22.9944 60.3465 25.4788C62.4042 28.0036 65.2982 29.8053 68.7572 30.4701L69.038 30.5241L69.2389 30.7299C69.2895 30.7816 69.3385 30.8344 69.3862 30.888C70.1232 31.7163 70.481 32.6745 70.3906 33.713L70.39 33.7199L70.3807 33.8109L70.3799 33.8178C70.3771 33.842 70.374 33.8662 70.3707 33.8903C70.4587 33.847 70.548 33.8026 70.6384 33.757C71.6803 33.2314 72.8122 32.5832 73.8118 31.9048C74.8262 31.2165 75.6448 30.5367 76.112 29.9583L76.2623 29.7721L76.4829 29.6831C79.1347 28.613 81.394 26.7513 82.9763 24.3846C84.5114 22.0884 85.4081 19.3178 85.4081 16.3317C85.4081 12.3649 83.8248 8.77541 81.2628 6.17549C78.7007 3.5756 75.1644 1.96952 71.2569 1.96952ZM67.8163 35.0367C68.3394 34.4212 68.512 33.9631 68.5552 33.6052L68.5615 33.5434C68.5967 33.1222 68.482 32.6944 68.1094 32.2363C64.3595 31.444 61.1972 29.4449 58.9301 26.6632C56.6434 23.8574 55.2689 20.2561 55.2689 16.3317C55.2689 11.8527 57.059 7.79599 59.9511 4.86116C62.8432 1.92629 66.8416 0.109055 71.2569 0.109055C75.6722 0.109055 79.6706 1.92629 82.5627 4.86116C85.4548 7.79599 87.2449 11.8527 87.2449 16.3317C87.2449 19.7009 86.2317 22.8331 84.4971 25.4278C82.754 28.0351 80.282 30.1011 77.3759 31.3236C76.7357 32.0548 75.8115 32.7872 74.8341 33.4505C73.7584 34.1805 72.5567 34.8677 71.4572 35.4223C70.4412 35.9349 69.4587 36.3629 68.743 36.5645L68.7271 36.569L65.7826 37.2842L67.8163 35.0367Z" fill="#8ECD1E"/>
<path fill-rule="evenodd" clip-rule="evenodd" d="M18.7686 27.4144L21.7259 33.4529L50.1267 33.4529C51.5741 33.4529 52.7475 34.6436 52.7475 36.1125V75.3408C52.7475 76.8096 51.5741 78.0003 50.1267 78.0003H4.19369C2.77348 78.0003 1.61168 76.8524 1.57382 75.4117L0.542916 36.1834L0.541905 36.1124L0.124214 27.4144H18.7686Z" fill="#8ECD1E"/>
<path fill-rule="evenodd" clip-rule="evenodd" d="M61.7136 38.7715C62.3469 38.7715 62.9202 39.032 63.3352 39.4531C63.7502 39.8742 64.0068 40.456 64.0068 41.0986C64.0068 41.1574 64.0046 41.2162 64.0002 41.2749L61.4367 75.5165C61.3913 76.1232 61.1194 76.6609 60.709 77.0469C60.2986 77.433 59.7497 77.6673 59.1501 77.6673H9.92192C10.6619 76.9333 11.3127 75.8694 11.8647 74.4662C12.5387 72.7528 13.2611 61.606 14 41.0139C14.0224 40.3882 14.2869 39.8276 14.6999 39.4234C15.113 39.0192 15.6747 38.7715 16.2917 38.7715H61.7136Z" fill="white"/>
<path fill-rule="evenodd" clip-rule="evenodd" d="M16.2917 39.7017C15.9221 39.7017 15.5866 39.8491 15.338 40.0924C15.0893 40.3358 14.9313 40.6713 14.9178 41.0477C14.5482 51.3467 14.1825 59.2917 13.8244 64.8798C13.6455 67.6727 13.4679 69.8859 13.2917 71.5136C13.2036 72.3268 13.1149 73.0034 13.025 73.5378C12.9384 74.0521 12.8408 74.4979 12.7178 74.8105C12.4383 75.5212 12.1287 76.1652 11.787 76.7371H59.1501C59.5092 76.7371 59.8371 76.5976 60.0841 76.3653C60.3311 76.133 60.4937 75.8111 60.521 75.4462L63.0845 41.2045C63.0872 41.1692 63.0885 41.1339 63.0885 41.0986C63.0885 40.712 62.9352 40.3639 62.6852 40.1102C62.4352 39.8566 62.093 39.7017 61.7136 39.7017H16.2917ZM14.0619 38.7544C14.6393 38.1893 15.4273 37.8412 16.2917 37.8412H61.7136C62.6008 37.8412 63.4051 38.2073 63.9852 38.7959C64.5652 39.3845 64.9252 40.1999 64.9252 41.0986C64.9252 41.1809 64.9221 41.2632 64.916 41.3452L62.3525 75.5869C62.2889 76.4353 61.9078 77.1888 61.3339 77.7286C60.7601 78.2684 59.9901 78.5976 59.1501 78.5976H7.67165L9.27935 77.0027C9.89884 76.3882 10.4892 75.4498 11.0116 74.1218C11.0571 74.006 11.1296 73.7287 11.2144 73.225C11.2958 72.7414 11.3799 72.1052 11.4659 71.3108C11.6378 69.723 11.8133 67.5412 11.9916 64.7593C12.3479 59.1975 12.7129 51.2731 13.0822 40.9801C13.1136 40.105 13.4844 39.3194 14.0619 38.7544Z" fill="#8ECD1E"/>
<path fill-rule="evenodd" clip-rule="evenodd" d="M32.2837 50.3421C32.5006 50.8065 32.3048 51.3611 31.8463 51.5808L26.9323 53.9358C26.4738 54.1555 25.9263 53.9571 25.7094 53.4927C25.4925 53.0283 25.6883 52.4738 26.1468 52.254L31.0608 49.899C31.5193 49.6793 32.0668 49.8777 32.2837 50.3421Z" fill="#8ECD1E"/>
<path d="M30.0472 61.319C31.2233 61.319 32.1766 60.3516 32.1766 59.1581C32.1766 57.9647 31.2233 56.9973 30.0472 56.9973C28.8712 56.9973 27.9178 57.9647 27.9178 59.1581C27.9178 60.3516 28.8712 61.319 30.0472 61.319Z" fill="#8ECD1E"/>
<path d="M47.4101 61.319C48.5861 61.319 49.5395 60.3516 49.5395 59.1581C49.5395 57.9647 48.5861 56.9973 47.4101 56.9973C46.2341 56.9973 45.2807 57.9647 45.2807 59.1581C45.2807 60.3516 46.2341 61.319 47.4101 61.319Z" fill="#8ECD1E"/>
<path fill-rule="evenodd" clip-rule="evenodd" d="M45.0872 50.3391C45.3057 49.8755 45.8539 49.6791 46.3116 49.9005L51.1803 52.2555C51.638 52.4769 51.8319 53.0322 51.6133 53.4958C51.3948 53.9594 50.8466 54.1557 50.3889 53.9344L45.5201 51.5794C45.0624 51.358 44.8686 50.8027 45.0872 50.3391Z" fill="#8ECD1E"/>
<path fill-rule="evenodd" clip-rule="evenodd" d="M36.5946 67.481C36.5946 66.9672 37.0058 66.5507 37.513 66.5507H41.1992C41.7064 66.5507 42.1176 66.9672 42.1176 67.481C42.1176 67.9947 41.7064 68.4112 41.1992 68.4112H37.513C37.0058 68.4112 36.5946 67.9947 36.5946 67.481Z" fill="#8ECD1E"/>
</svg>
