<svg width="36" height="36" viewBox="0 0 36 36" fill="none" xmlns="http://www.w3.org/2000/svg">
<path d="M0 8C0 3.58172 3.58172 0 8 0H28C32.4183 0 36 3.58172 36 8V28C36 32.4183 32.4183 36 28 36H8C3.58172 36 0 32.4183 0 28V8Z" fill="#EE9500"/>
<path d="M16.268 7C17.0378 5.66667 18.9622 5.66667 19.7321 7L30.1244 25C30.8942 26.3333 29.9319 28 28.3923 28H7.60769C6.06809 28 5.10584 26.3333 5.87564 25L16.268 7Z" fill="white"/>
<line x1="18" y1="20" x2="18" y2="13" stroke="#EE9500" stroke-width="2" stroke-linecap="round"/>
<circle cx="18" cy="24" r="1" fill="#EE9500"/>
</svg>
