<svg width="20" height="20" viewBox="0 0 20 20" fill="none" xmlns="http://www.w3.org/2000/svg">
<path d="M9.99994 18.2967C14.5816 18.2967 18.2958 14.5826 18.2958 10.0009C18.2958 5.41924 14.5816 1.70508 9.99994 1.70508C5.41827 1.70508 1.7041 5.41924 1.7041 10.0009C1.7041 14.5826 5.41827 18.2967 9.99994 18.2967ZM9.99994 19.5467C4.72827 19.5467 0.454102 15.2726 0.454102 10.0009C0.454102 4.72925 4.72827 0.455078 9.99994 0.455078C15.2716 0.455078 19.5458 4.72925 19.5458 10.0009C19.5458 15.2726 15.2716 19.5467 9.99994 19.5467Z" fill="#1409A0"/>
<path d="M8.25827 8.52133V8.53466C8.25663 8.61674 8.23884 8.69769 8.20591 8.77289C8.17299 8.84809 8.12557 8.91607 8.06637 8.97294C8.00718 9.02982 7.93736 9.07448 7.8609 9.10437C7.78444 9.13426 7.70285 9.1488 7.62077 9.14716C7.5387 9.14552 7.45775 9.12773 7.38255 9.0948C7.30734 9.06188 7.23937 9.01446 7.18249 8.95526C7.12561 8.89607 7.08096 8.82625 7.05106 8.74979C7.02117 8.67333 7.00663 8.59174 7.00827 8.50966C7.00742 8.50052 7.00714 8.49134 7.00744 8.48216C7.00744 7.55883 7.2666 6.79883 7.77994 6.19966C8.34244 5.55299 9.11744 5.23633 10.0991 5.23633C10.9724 5.23633 11.6799 5.48966 12.2191 6.00049C12.7358 6.48716 12.9924 7.14549 12.9924 7.96049C12.9924 8.55216 12.8091 9.09549 12.4508 9.56966C12.3008 9.75883 11.9774 10.0738 11.3916 10.6038C11.1083 10.8513 10.9083 11.0822 10.7833 11.293C10.6191 11.5763 10.5399 11.8647 10.5391 12.1747L10.5616 12.553C10.5634 12.5828 10.5591 12.6126 10.549 12.6406C10.5388 12.6687 10.523 12.6944 10.5026 12.7161C10.4821 12.7378 10.4574 12.7551 10.43 12.7669C10.4026 12.7787 10.3731 12.7847 10.3433 12.7847H9.52494C9.4962 12.7848 9.46772 12.7792 9.44113 12.7683C9.41454 12.7574 9.39038 12.7413 9.37001 12.721C9.34965 12.7007 9.33349 12.6766 9.32247 12.6501C9.31145 12.6235 9.30577 12.5951 9.30577 12.5663V12.188C9.30577 11.7747 9.39244 11.3888 9.5616 11.0513C9.7666 10.6122 10.1908 10.1038 10.8058 9.56716C11.1883 9.18383 11.3083 9.06049 11.3874 8.96133C11.6374 8.63966 11.7591 8.32049 11.7591 7.98633C11.7591 7.48883 11.6149 7.09633 11.3408 6.81049C11.0524 6.52216 10.6308 6.37799 10.0599 6.37799C9.42244 6.37799 8.96577 6.58299 8.6516 7.00049C8.38744 7.33133 8.2616 7.81466 8.2616 8.48216C8.26166 8.49529 8.26055 8.5084 8.25827 8.52133ZM9.99994 14.9155C9.83418 14.9155 9.67521 14.8496 9.558 14.7324C9.44079 14.6152 9.37494 14.4563 9.37494 14.2905C9.37494 14.1247 9.44079 13.9658 9.558 13.8486C9.67521 13.7313 9.83418 13.6655 9.99994 13.6655C10.1657 13.6655 10.3247 13.7313 10.4419 13.8486C10.5591 13.9658 10.6249 14.1247 10.6249 14.2905C10.6249 14.4563 10.5591 14.6152 10.4419 14.7324C10.3247 14.8496 10.1657 14.9155 9.99994 14.9155Z" fill="#1409A0"/>
</svg>
