<svg width="20" height="20" viewBox="0 0 20 20" fill="none" xmlns="http://www.w3.org/2000/svg">
<g clip-path="url(#clip0_22556_73541)">
<path d="M20 10.0488C20 15.5988 15.523 20.0977 10 20.0977C4.4771 20.0977 0 15.5988 0 10.0488C0 4.49896 4.4771 0 10 0C15.523 0 20 4.49896 20 10.0488Z" fill="white"/>
<path d="M10 10.8925C9.7526 10.8955 9.50757 10.8437 9.28253 10.7408L7.1067 9.65C6.88929 9.54721 6.69777 9.39686 6.54631 9.21006C6.39485 9.02326 6.28733 8.8048 6.2317 8.57083C6.18423 8.33484 6.19047 8.09119 6.24995 7.85793C6.30942 7.62468 6.42061 7.40779 6.57528 7.22333L8.7517 4.505C8.89873 4.31257 9.08741 4.15593 9.30361 4.04683C9.5198 3.93772 9.7579 3.87898 10 3.875C10.2421 3.87902 10.4801 3.93779 10.6962 4.0469C10.9123 4.156 11.1008 4.31262 11.2478 4.505L13.4242 7.22917C13.5789 7.41362 13.6901 7.63048 13.7497 7.86373C13.8093 8.09697 13.8157 8.34063 13.7684 8.57667C13.713 8.81069 13.6056 9.02922 13.4541 9.21597C13.3026 9.40271 13.111 9.55287 12.8934 9.65525L10.7169 10.7467C10.4916 10.8473 10.2468 10.8971 10 10.8925V10.8925ZM10 4.75992C9.88969 4.76246 9.78137 4.79003 9.68325 4.84056C9.58513 4.89108 9.49977 4.96324 9.43361 5.05158L7.25778 7.77167C7.18534 7.85447 7.13251 7.95254 7.10322 8.05859C7.07393 8.16464 7.06894 8.27592 7.08861 8.38417C7.11651 8.49095 7.16827 8.59001 7.24002 8.67388C7.31176 8.75775 7.40161 8.82424 7.50278 8.86833L9.6792 9.95917C9.78161 10.0018 9.89208 10.0218 10.0029 10.0175C10.1138 10.0218 10.2243 10.0018 10.3267 9.95917L12.5025 8.86833C12.6032 8.82342 12.6925 8.75667 12.7642 8.67293C12.8358 8.58918 12.8879 8.49054 12.9167 8.38417C12.9361 8.27592 12.931 8.1647 12.9017 8.05869C12.8724 7.95269 12.8198 7.8546 12.7475 7.77167L10.5729 5.05333C10.5056 4.96463 10.4192 4.8922 10.3202 4.84141C10.2211 4.79062 10.1119 4.76276 10.0006 4.75992H10Z" fill="#4C40E6"/>
<path d="M9.5625 7.41013V4.3418C9.56326 4.226 9.6096 4.11516 9.69149 4.03328C9.77337 3.9514 9.8842 3.90506 10 3.9043C10.1158 3.90506 10.2266 3.9514 10.3085 4.03328C10.3904 4.11516 10.4367 4.226 10.4375 4.3418V7.41013C10.4367 7.52593 10.3904 7.63676 10.3085 7.71864C10.2266 7.80053 10.1158 7.84687 10 7.84763C9.8842 7.84687 9.77337 7.80053 9.69149 7.71864C9.6096 7.63676 9.56326 7.52593 9.5625 7.41013V7.41013Z" fill="#4C40E6"/>
<path d="M12.1875 9.59766L10 7.95266L7.81254 9.59766C7.76658 9.63213 7.71428 9.65721 7.65862 9.67147C7.60297 9.68573 7.54505 9.68888 7.48817 9.68076C7.43129 9.67263 7.37658 9.65339 7.32714 9.62411C7.2777 9.59484 7.23451 9.55612 7.20004 9.51016C7.16557 9.46419 7.14049 9.41189 7.12623 9.35624C7.11197 9.30058 7.10881 9.24266 7.11694 9.18578C7.12506 9.12891 7.14431 9.07419 7.17358 9.02475C7.20286 8.97532 7.24158 8.93213 7.28754 8.89766L9.73754 7.06016C9.81327 7.00336 9.90538 6.97266 10 6.97266C10.0947 6.97266 10.1868 7.00336 10.2625 7.06016L12.7125 8.89766C12.7585 8.93213 12.7972 8.97532 12.8265 9.02475C12.8558 9.07419 12.875 9.12891 12.8831 9.18578C12.8913 9.24266 12.8881 9.30058 12.8739 9.35624C12.8596 9.41189 12.8345 9.46419 12.8 9.51016C12.7601 9.56533 12.7074 9.61004 12.6465 9.6405C12.5855 9.67097 12.5182 9.68629 12.45 9.68516C12.3554 9.68474 12.2635 9.65408 12.1875 9.59766V9.59766ZM10 16.1252C9.7599 16.1214 9.52365 16.064 9.30863 15.957C9.09362 15.85 8.90531 15.6962 8.75754 15.5068L6.73979 13.0393C6.55025 12.812 6.44398 12.5268 6.43857 12.2308C6.43316 11.9349 6.52893 11.6459 6.71004 11.4118C6.82908 11.2508 6.98414 11.1199 7.16281 11.0296C7.34149 10.9392 7.53882 10.8919 7.73904 10.8915C7.92721 10.8917 8.11324 10.9314 8.28504 11.0082L9.22421 11.4282C9.46738 11.5361 9.7305 11.5917 9.99654 11.5915C10.2611 11.5915 10.5228 11.5363 10.7648 11.4293L11.704 11.0082C11.8744 10.9316 12.059 10.8918 12.2459 10.8915C12.4465 10.8919 12.6444 10.9391 12.8237 11.0292C13.003 11.1193 13.1588 11.2499 13.279 11.4107C13.463 11.6435 13.5607 11.9329 13.5554 12.2296C13.5501 12.5264 13.4421 12.8121 13.2498 13.0382L11.2315 15.5057C11.0873 15.6963 10.9013 15.8513 10.6878 15.9587C10.4743 16.0661 10.239 16.1231 10 16.1252ZM7.74838 11.7735C7.68259 11.776 7.61816 11.793 7.55968 11.8232C7.50121 11.8535 7.45011 11.8963 7.41004 11.9485C7.34795 12.0259 7.31509 12.1227 7.31722 12.2219C7.31936 12.3211 7.35635 12.4163 7.42171 12.491L9.44004 14.9585C9.50512 15.0467 9.58998 15.1183 9.6878 15.1677C9.78562 15.2171 9.89367 15.2428 10.0033 15.2428C10.1128 15.2428 10.2209 15.2171 10.3187 15.1677C10.4165 15.1183 10.5014 15.0467 10.5665 14.9585L12.5848 12.491C12.6499 12.4163 12.6868 12.3211 12.689 12.222C12.6913 12.1228 12.6587 12.0261 12.597 11.9485C12.5578 11.8957 12.507 11.8525 12.4486 11.8222C12.3902 11.7919 12.3257 11.7752 12.2599 11.7735C12.195 11.7743 12.1311 11.7886 12.072 11.8155L11.1329 12.2355C10.7779 12.3907 10.3945 12.4702 10.007 12.4688C9.61961 12.4703 9.23614 12.3908 8.88121 12.2355L7.94204 11.8155C7.88055 11.7899 7.81494 11.7757 7.74838 11.7735V11.7735Z" fill="#4C40E6"/>
</g>
<defs>
<clipPath id="clip0_22556_73541">
<rect width="20" height="20" fill="white"/>
</clipPath>
</defs>
</svg>
