<svg width="44" height="44" viewBox="0 0 44 44" fill="none" xmlns="http://www.w3.org/2000/svg">
<rect x="0.75" y="0.75" width="42.5" height="42.5" rx="21.25" fill="#2D333A"/>
<path d="M22 6.9375C17.875 6.9375 14.5 10.425 14.5 14.6875C14.5 17.4 15.8594 19.7734 17.9219 21.1781C12.6719 22.9703 8.875 28.0562 8.875 34.0625C8.875 34.5953 9.29687 35.0312 9.8125 35.0312C10.3281 35.0312 10.75 34.5953 10.75 34.0625C10.75 27.6687 15.8125 22.4375 22 22.4375C26.125 22.4375 29.5 18.95 29.5 14.6875C29.5 10.425 26.125 6.9375 22 6.9375ZM22 20.5C18.9062 20.5 16.375 17.8844 16.375 14.6875C16.375 11.4906 18.9062 8.875 22 8.875C25.0938 8.875 27.625 11.4906 27.625 14.6875C27.625 17.8844 25.0938 20.5 22 20.5Z" fill="rgba(3, 212, 152, 1)"/>
<path fill-rule="evenodd" clip-rule="evenodd" d="M26.4859 22.4896C26.6102 22.0083 27.1011 21.719 27.5824 21.8433C28.7487 22.1446 29.8077 22.6079 30.7967 23.3941C31.7793 24.1751 32.6507 25.2412 33.4927 26.6913C33.7423 27.1212 33.5962 27.672 33.1663 27.9216C32.7365 28.1711 32.1857 28.025 31.9361 27.5952C31.171 26.2775 30.4352 25.406 29.6767 24.8031C28.9247 24.2054 28.1086 23.8383 27.1321 23.5861C26.6509 23.4617 26.3615 22.9708 26.4859 22.4896Z" fill="rgba(3, 212, 152, 1)"/>
<rect x="18" y="26" width="19.2857" height="8.85714" rx="2" fill="rgba(3, 212, 152, 1)"/>
<mask id="path-5-outside-1_8553_6014" maskUnits="userSpaceOnUse" x="19" y="27" width="18" height="7" fill="black">
<rect fill="white" x="19" y="27" width="18" height="7"/>
<path d="M20 31.7919V28H20.4996V31.3815H22.2273V31.7919H20Z"/>
<path d="M23.5537 31.8613C23.3088 31.8613 23.1042 31.7919 22.9396 31.6532C22.7791 31.5106 22.6988 31.3141 22.6988 31.0636C22.6988 30.7553 22.8413 30.5202 23.1262 30.3584C23.4152 30.1927 23.8707 30.0771 24.4927 30.0116C24.4927 29.8921 24.4747 29.7784 24.4386 29.6705C24.4065 29.5626 24.3463 29.4759 24.258 29.4104C24.1737 29.341 24.0513 29.3064 23.8908 29.3064C23.7222 29.3064 23.5637 29.3372 23.4152 29.3988C23.2667 29.4605 23.1343 29.5299 23.0179 29.6069L22.8253 29.2775C22.9617 29.1927 23.1283 29.1118 23.3249 29.0347C23.5256 28.9538 23.7423 28.9133 23.975 28.9133C24.3322 28.9133 24.5911 29.0193 24.7516 29.2312C24.9121 29.4393 24.9924 29.7187 24.9924 30.0694V31.7919H24.583L24.5409 31.4566H24.5228C24.3864 31.5645 24.2359 31.659 24.0714 31.7399C23.9108 31.8208 23.7383 31.8613 23.5537 31.8613ZM23.6981 31.4798C23.8386 31.4798 23.971 31.447 24.0954 31.3815C24.2198 31.316 24.3523 31.2235 24.4927 31.104V30.3237C24.0071 30.3815 23.666 30.4682 23.4694 30.5838C23.2767 30.6994 23.1804 30.8478 23.1804 31.0289C23.1804 31.1869 23.2306 31.3025 23.3309 31.3757C23.4313 31.4451 23.5537 31.4798 23.6981 31.4798Z"/>
<path d="M25.961 33C25.8968 33 25.8346 32.9942 25.7744 32.9827C25.7182 32.9711 25.666 32.9576 25.6179 32.9422L25.7142 32.5665C25.7463 32.5742 25.7824 32.5819 25.8226 32.5896C25.8627 32.6012 25.9008 32.6069 25.9369 32.6069C26.1015 32.6069 26.2379 32.5491 26.3463 32.4335C26.4546 32.3218 26.5389 32.1792 26.5991 32.0058L26.6653 31.7977L25.4915 28.9827H26.0031L26.5991 30.5376C26.6432 30.657 26.6894 30.7861 26.7376 30.9249C26.7897 31.0636 26.8379 31.1985 26.882 31.3295H26.9061C26.9503 31.2023 26.9924 31.0694 27.0325 30.9306C27.0727 30.7919 27.1128 30.6609 27.1529 30.5376L27.6766 28.9827H28.1582L27.0566 32.0231C26.9884 32.2081 26.9061 32.3738 26.8098 32.5202C26.7175 32.6667 26.6011 32.7823 26.4606 32.8671C26.3242 32.9557 26.1577 33 25.961 33Z"/>
<path d="M29.8853 31.8613C29.6244 31.8613 29.3876 31.8035 29.1749 31.6879C28.9622 31.5684 28.7937 31.3988 28.6693 31.1792C28.5448 30.9595 28.4826 30.6975 28.4826 30.3931C28.4826 30.0848 28.5448 29.8208 28.6693 29.6012C28.7977 29.3815 28.9622 29.2119 29.1629 29.0925C29.3635 28.973 29.5742 28.9133 29.795 28.9133C30.1682 28.9133 30.4551 29.0328 30.6558 29.2717C30.8605 29.5106 30.9628 29.8304 30.9628 30.2312C30.9628 30.2813 30.9608 30.3314 30.9568 30.3815C30.9568 30.4277 30.9528 30.4682 30.9447 30.5029H28.9702C28.9903 30.7996 29.0866 31.0366 29.2592 31.2139C29.4358 31.3911 29.6645 31.4798 29.9455 31.4798C30.0859 31.4798 30.2143 31.4605 30.3307 31.422C30.4511 31.3796 30.5655 31.3256 30.6738 31.2601L30.8484 31.5723C30.724 31.6493 30.5815 31.7168 30.421 31.7746C30.2645 31.8324 30.0859 31.8613 29.8853 31.8613ZM28.9642 30.1618H30.5294C30.5294 29.8767 30.4652 29.6609 30.3367 29.5145C30.2123 29.3642 30.0357 29.289 29.807 29.289C29.6023 29.289 29.4177 29.3661 29.2532 29.5202C29.0926 29.6705 28.9963 29.8844 28.9642 30.1618Z"/>
<path d="M31.6857 31.7919V28.9827H32.0951L32.1372 29.4913H32.1553C32.2556 29.3141 32.378 29.1734 32.5225 29.0694C32.667 28.9653 32.8215 28.9133 32.986 28.9133C33.1024 28.9133 33.2067 28.9326 33.299 28.9711L33.2027 29.3873C33.1546 29.3719 33.1104 29.3603 33.0703 29.3526C33.0302 29.3449 32.98 29.341 32.9198 29.341C32.7954 29.341 32.665 29.3892 32.5285 29.4855C32.3961 29.5819 32.2797 29.7495 32.1794 29.9884V31.7919H31.6857Z"/>
<path d="M33.5198 31.7919V31.5087C33.9051 31.1387 34.2322 30.815 34.5011 30.5376C34.77 30.2563 34.9746 30.0039 35.1151 29.7803C35.2556 29.553 35.3258 29.341 35.3258 29.1445C35.3258 28.9326 35.2656 28.7592 35.1452 28.6243C35.0248 28.4894 34.8422 28.422 34.5974 28.422C34.4369 28.422 34.2884 28.4663 34.1519 28.5549C34.0155 28.6397 33.8911 28.7437 33.7787 28.8671L33.4958 28.5954C33.6563 28.4258 33.8269 28.2909 34.0074 28.1908C34.1921 28.0867 34.4088 28.0347 34.6576 28.0347C35.0148 28.0347 35.2957 28.1349 35.5004 28.3353C35.705 28.5318 35.8074 28.7938 35.8074 29.1214C35.8074 29.3526 35.7391 29.5877 35.6027 29.8266C35.4703 30.0617 35.2857 30.3102 35.0489 30.5723C34.8161 30.8304 34.5472 31.1118 34.2422 31.4162C34.3466 31.4085 34.4549 31.4008 34.5673 31.3931C34.6797 31.3854 34.786 31.3815 34.8863 31.3815H36V31.7919H33.5198Z"/>
</mask>
<path d="M20 31.7919V28H20.4996V31.3815H22.2273V31.7919H20Z" fill="#171A1E"/>
<path d="M23.5537 31.8613C23.3088 31.8613 23.1042 31.7919 22.9396 31.6532C22.7791 31.5106 22.6988 31.3141 22.6988 31.0636C22.6988 30.7553 22.8413 30.5202 23.1262 30.3584C23.4152 30.1927 23.8707 30.0771 24.4927 30.0116C24.4927 29.8921 24.4747 29.7784 24.4386 29.6705C24.4065 29.5626 24.3463 29.4759 24.258 29.4104C24.1737 29.341 24.0513 29.3064 23.8908 29.3064C23.7222 29.3064 23.5637 29.3372 23.4152 29.3988C23.2667 29.4605 23.1343 29.5299 23.0179 29.6069L22.8253 29.2775C22.9617 29.1927 23.1283 29.1118 23.3249 29.0347C23.5256 28.9538 23.7423 28.9133 23.975 28.9133C24.3322 28.9133 24.5911 29.0193 24.7516 29.2312C24.9121 29.4393 24.9924 29.7187 24.9924 30.0694V31.7919H24.583L24.5409 31.4566H24.5228C24.3864 31.5645 24.2359 31.659 24.0714 31.7399C23.9108 31.8208 23.7383 31.8613 23.5537 31.8613ZM23.6981 31.4798C23.8386 31.4798 23.971 31.447 24.0954 31.3815C24.2198 31.316 24.3523 31.2235 24.4927 31.104V30.3237C24.0071 30.3815 23.666 30.4682 23.4694 30.5838C23.2767 30.6994 23.1804 30.8478 23.1804 31.0289C23.1804 31.1869 23.2306 31.3025 23.3309 31.3757C23.4313 31.4451 23.5537 31.4798 23.6981 31.4798Z" fill="#171A1E"/>
<path d="M25.961 33C25.8968 33 25.8346 32.9942 25.7744 32.9827C25.7182 32.9711 25.666 32.9576 25.6179 32.9422L25.7142 32.5665C25.7463 32.5742 25.7824 32.5819 25.8226 32.5896C25.8627 32.6012 25.9008 32.6069 25.9369 32.6069C26.1015 32.6069 26.2379 32.5491 26.3463 32.4335C26.4546 32.3218 26.5389 32.1792 26.5991 32.0058L26.6653 31.7977L25.4915 28.9827H26.0031L26.5991 30.5376C26.6432 30.657 26.6894 30.7861 26.7376 30.9249C26.7897 31.0636 26.8379 31.1985 26.882 31.3295H26.9061C26.9503 31.2023 26.9924 31.0694 27.0325 30.9306C27.0727 30.7919 27.1128 30.6609 27.1529 30.5376L27.6766 28.9827H28.1582L27.0566 32.0231C26.9884 32.2081 26.9061 32.3738 26.8098 32.5202C26.7175 32.6667 26.6011 32.7823 26.4606 32.8671C26.3242 32.9557 26.1577 33 25.961 33Z" fill="#171A1E"/>
<path d="M29.8853 31.8613C29.6244 31.8613 29.3876 31.8035 29.1749 31.6879C28.9622 31.5684 28.7937 31.3988 28.6693 31.1792C28.5448 30.9595 28.4826 30.6975 28.4826 30.3931C28.4826 30.0848 28.5448 29.8208 28.6693 29.6012C28.7977 29.3815 28.9622 29.2119 29.1629 29.0925C29.3635 28.973 29.5742 28.9133 29.795 28.9133C30.1682 28.9133 30.4551 29.0328 30.6558 29.2717C30.8605 29.5106 30.9628 29.8304 30.9628 30.2312C30.9628 30.2813 30.9608 30.3314 30.9568 30.3815C30.9568 30.4277 30.9528 30.4682 30.9447 30.5029H28.9702C28.9903 30.7996 29.0866 31.0366 29.2592 31.2139C29.4358 31.3911 29.6645 31.4798 29.9455 31.4798C30.0859 31.4798 30.2143 31.4605 30.3307 31.422C30.4511 31.3796 30.5655 31.3256 30.6738 31.2601L30.8484 31.5723C30.724 31.6493 30.5815 31.7168 30.421 31.7746C30.2645 31.8324 30.0859 31.8613 29.8853 31.8613ZM28.9642 30.1618H30.5294C30.5294 29.8767 30.4652 29.6609 30.3367 29.5145C30.2123 29.3642 30.0357 29.289 29.807 29.289C29.6023 29.289 29.4177 29.3661 29.2532 29.5202C29.0926 29.6705 28.9963 29.8844 28.9642 30.1618Z" fill="#171A1E"/>
<path d="M31.6857 31.7919V28.9827H32.0951L32.1372 29.4913H32.1553C32.2556 29.3141 32.378 29.1734 32.5225 29.0694C32.667 28.9653 32.8215 28.9133 32.986 28.9133C33.1024 28.9133 33.2067 28.9326 33.299 28.9711L33.2027 29.3873C33.1546 29.3719 33.1104 29.3603 33.0703 29.3526C33.0302 29.3449 32.98 29.341 32.9198 29.341C32.7954 29.341 32.665 29.3892 32.5285 29.4855C32.3961 29.5819 32.2797 29.7495 32.1794 29.9884V31.7919H31.6857Z" fill="#171A1E"/>
<path d="M33.5198 31.7919V31.5087C33.9051 31.1387 34.2322 30.815 34.5011 30.5376C34.77 30.2563 34.9746 30.0039 35.1151 29.7803C35.2556 29.553 35.3258 29.341 35.3258 29.1445C35.3258 28.9326 35.2656 28.7592 35.1452 28.6243C35.0248 28.4894 34.8422 28.422 34.5974 28.422C34.4369 28.422 34.2884 28.4663 34.1519 28.5549C34.0155 28.6397 33.8911 28.7437 33.7787 28.8671L33.4958 28.5954C33.6563 28.4258 33.8269 28.2909 34.0074 28.1908C34.1921 28.0867 34.4088 28.0347 34.6576 28.0347C35.0148 28.0347 35.2957 28.1349 35.5004 28.3353C35.705 28.5318 35.8074 28.7938 35.8074 29.1214C35.8074 29.3526 35.7391 29.5877 35.6027 29.8266C35.4703 30.0617 35.2857 30.3102 35.0489 30.5723C34.8161 30.8304 34.5472 31.1118 34.2422 31.4162C34.3466 31.4085 34.4549 31.4008 34.5673 31.3931C34.6797 31.3854 34.786 31.3815 34.8863 31.3815H36V31.7919H33.5198Z" fill="#171A1E"/>
<path d="M20 31.7919V28H20.4996V31.3815H22.2273V31.7919H20Z" stroke="#171A1E" stroke-width="0.2" mask="url(#path-5-outside-1_8553_6014)"/>
<path d="M23.5537 31.8613C23.3088 31.8613 23.1042 31.7919 22.9396 31.6532C22.7791 31.5106 22.6988 31.3141 22.6988 31.0636C22.6988 30.7553 22.8413 30.5202 23.1262 30.3584C23.4152 30.1927 23.8707 30.0771 24.4927 30.0116C24.4927 29.8921 24.4747 29.7784 24.4386 29.6705C24.4065 29.5626 24.3463 29.4759 24.258 29.4104C24.1737 29.341 24.0513 29.3064 23.8908 29.3064C23.7222 29.3064 23.5637 29.3372 23.4152 29.3988C23.2667 29.4605 23.1343 29.5299 23.0179 29.6069L22.8253 29.2775C22.9617 29.1927 23.1283 29.1118 23.3249 29.0347C23.5256 28.9538 23.7423 28.9133 23.975 28.9133C24.3322 28.9133 24.5911 29.0193 24.7516 29.2312C24.9121 29.4393 24.9924 29.7187 24.9924 30.0694V31.7919H24.583L24.5409 31.4566H24.5228C24.3864 31.5645 24.2359 31.659 24.0714 31.7399C23.9108 31.8208 23.7383 31.8613 23.5537 31.8613ZM23.6981 31.4798C23.8386 31.4798 23.971 31.447 24.0954 31.3815C24.2198 31.316 24.3523 31.2235 24.4927 31.104V30.3237C24.0071 30.3815 23.666 30.4682 23.4694 30.5838C23.2767 30.6994 23.1804 30.8478 23.1804 31.0289C23.1804 31.1869 23.2306 31.3025 23.3309 31.3757C23.4313 31.4451 23.5537 31.4798 23.6981 31.4798Z" stroke="#171A1E" stroke-width="0.2" mask="url(#path-5-outside-1_8553_6014)"/>
<path d="M25.961 33C25.8968 33 25.8346 32.9942 25.7744 32.9827C25.7182 32.9711 25.666 32.9576 25.6179 32.9422L25.7142 32.5665C25.7463 32.5742 25.7824 32.5819 25.8226 32.5896C25.8627 32.6012 25.9008 32.6069 25.9369 32.6069C26.1015 32.6069 26.2379 32.5491 26.3463 32.4335C26.4546 32.3218 26.5389 32.1792 26.5991 32.0058L26.6653 31.7977L25.4915 28.9827H26.0031L26.5991 30.5376C26.6432 30.657 26.6894 30.7861 26.7376 30.9249C26.7897 31.0636 26.8379 31.1985 26.882 31.3295H26.9061C26.9503 31.2023 26.9924 31.0694 27.0325 30.9306C27.0727 30.7919 27.1128 30.6609 27.1529 30.5376L27.6766 28.9827H28.1582L27.0566 32.0231C26.9884 32.2081 26.9061 32.3738 26.8098 32.5202C26.7175 32.6667 26.6011 32.7823 26.4606 32.8671C26.3242 32.9557 26.1577 33 25.961 33Z" stroke="#171A1E" stroke-width="0.2" mask="url(#path-5-outside-1_8553_6014)"/>
<path d="M29.8853 31.8613C29.6244 31.8613 29.3876 31.8035 29.1749 31.6879C28.9622 31.5684 28.7937 31.3988 28.6693 31.1792C28.5448 30.9595 28.4826 30.6975 28.4826 30.3931C28.4826 30.0848 28.5448 29.8208 28.6693 29.6012C28.7977 29.3815 28.9622 29.2119 29.1629 29.0925C29.3635 28.973 29.5742 28.9133 29.795 28.9133C30.1682 28.9133 30.4551 29.0328 30.6558 29.2717C30.8605 29.5106 30.9628 29.8304 30.9628 30.2312C30.9628 30.2813 30.9608 30.3314 30.9568 30.3815C30.9568 30.4277 30.9528 30.4682 30.9447 30.5029H28.9702C28.9903 30.7996 29.0866 31.0366 29.2592 31.2139C29.4358 31.3911 29.6645 31.4798 29.9455 31.4798C30.0859 31.4798 30.2143 31.4605 30.3307 31.422C30.4511 31.3796 30.5655 31.3256 30.6738 31.2601L30.8484 31.5723C30.724 31.6493 30.5815 31.7168 30.421 31.7746C30.2645 31.8324 30.0859 31.8613 29.8853 31.8613ZM28.9642 30.1618H30.5294C30.5294 29.8767 30.4652 29.6609 30.3367 29.5145C30.2123 29.3642 30.0357 29.289 29.807 29.289C29.6023 29.289 29.4177 29.3661 29.2532 29.5202C29.0926 29.6705 28.9963 29.8844 28.9642 30.1618Z" stroke="#171A1E" stroke-width="0.2" mask="url(#path-5-outside-1_8553_6014)"/>
<path d="M31.6857 31.7919V28.9827H32.0951L32.1372 29.4913H32.1553C32.2556 29.3141 32.378 29.1734 32.5225 29.0694C32.667 28.9653 32.8215 28.9133 32.986 28.9133C33.1024 28.9133 33.2067 28.9326 33.299 28.9711L33.2027 29.3873C33.1546 29.3719 33.1104 29.3603 33.0703 29.3526C33.0302 29.3449 32.98 29.341 32.9198 29.341C32.7954 29.341 32.665 29.3892 32.5285 29.4855C32.3961 29.5819 32.2797 29.7495 32.1794 29.9884V31.7919H31.6857Z" stroke="#171A1E" stroke-width="0.2" mask="url(#path-5-outside-1_8553_6014)"/>
<path d="M33.5198 31.7919V31.5087C33.9051 31.1387 34.2322 30.815 34.5011 30.5376C34.77 30.2563 34.9746 30.0039 35.1151 29.7803C35.2556 29.553 35.3258 29.341 35.3258 29.1445C35.3258 28.9326 35.2656 28.7592 35.1452 28.6243C35.0248 28.4894 34.8422 28.422 34.5974 28.422C34.4369 28.422 34.2884 28.4663 34.1519 28.5549C34.0155 28.6397 33.8911 28.7437 33.7787 28.8671L33.4958 28.5954C33.6563 28.4258 33.8269 28.2909 34.0074 28.1908C34.1921 28.0867 34.4088 28.0347 34.6576 28.0347C35.0148 28.0347 35.2957 28.1349 35.5004 28.3353C35.705 28.5318 35.8074 28.7938 35.8074 29.1214C35.8074 29.3526 35.7391 29.5877 35.6027 29.8266C35.4703 30.0617 35.2857 30.3102 35.0489 30.5723C34.8161 30.8304 34.5472 31.1118 34.2422 31.4162C34.3466 31.4085 34.4549 31.4008 34.5673 31.3931C34.6797 31.3854 34.786 31.3815 34.8863 31.3815H36V31.7919H33.5198Z" stroke="#171A1E" stroke-width="0.2" mask="url(#path-5-outside-1_8553_6014)"/>
<rect x="0.75" y="0.75" width="42.5" height="42.5" rx="21.25" stroke="rgba(3, 212, 152, 1)" stroke-width="1.5"/>
</svg>
