<svg width="20" height="20" viewBox="0 0 20 20" fill="none" xmlns="http://www.w3.org/2000/svg">
<path d="M10 0C15.5234 0 20 4.47656 20 10C20 15.5234 15.5234 20 10 20C4.47656 20 0 15.5234 0 10C0 4.47656 4.47656 0 10 0Z" fill="#4C40E6"/>
<path d="M16.0924 13.5716C16.0256 12.4067 15.6265 11.3245 14.9683 10.5244C14.204 9.59519 13.1153 9.06313 11.8199 8.9858L11.6668 8.97672L9.49787 8.97658C9.4979 8.97486 9.49801 8.97315 9.49801 8.97142V6.49961C9.49801 6.32432 9.34936 6.18848 9.16599 6.18848C8.98134 6.18848 8.83397 6.32778 8.83397 6.49961V8.97141C8.83397 8.97313 8.83408 8.97481 8.83411 8.97653L3.88965 8.97619V11.5605H11.4901C12.0928 11.5605 12.5716 11.735 12.9132 12.0791C13.26 12.4285 13.4599 12.9435 13.5074 13.6096L13.527 13.8846H16.1103L16.0924 13.5716ZM14.07 13.2924C13.978 12.61 13.7309 12.0624 13.3334 11.662C12.883 11.2082 12.2456 10.9683 11.4901 10.9683H4.48181V9.56835H11.6405L11.7847 9.5769C12.374 9.61209 12.9119 9.75154 13.3834 9.99143C13.8167 10.2119 14.1961 10.5177 14.511 10.9006C15.0314 11.5332 15.3682 12.3734 15.4742 13.2924H14.07Z" fill="white" stroke="white" stroke-width="0.4"/>
<path d="M7.50668 5.21971H10.8252C11.0067 5.21971 11.158 5.07107 11.158 4.88769C11.158 4.70305 11.009 4.55566 10.8252 4.55566H7.50668C7.32515 4.55566 7.17383 4.70433 7.17383 4.88769C7.17383 5.07235 7.32287 5.21971 7.50668 5.21971Z" fill="white" stroke="white" stroke-width="0.4"/>
</svg>
