<svg width="20" height="20" viewBox="0 0 20 20" fill="none" xmlns="http://www.w3.org/2000/svg">
<path d="M10 0C15.5234 0 20 4.47656 20 10C20 15.5234 15.5234 20 10 20C4.47656 20 0 15.5234 0 10C0 4.47656 4.47656 0 10 0Z" fill="white"/>
<path d="M16.0924 13.5716C16.0256 12.4067 15.6265 11.3245 14.9683 10.5244C14.204 9.59519 13.1153 9.06313 11.8199 8.9858L11.6668 8.97672L9.49787 8.97658C9.4979 8.97486 9.49801 8.97315 9.49801 8.97142V6.49961C9.49801 6.32432 9.34936 6.18848 9.16599 6.18848C8.98134 6.18848 8.83397 6.32778 8.83397 6.49961V8.97141C8.83397 8.97313 8.83408 8.97481 8.83411 8.97653L3.88965 8.97619V11.5605H11.4901C12.0928 11.5605 12.5716 11.735 12.9132 12.0791C13.26 12.4285 13.4599 12.9435 13.5074 13.6096L13.527 13.8846H16.1103L16.0924 13.5716ZM14.07 13.2924C13.978 12.61 13.7309 12.0624 13.3334 11.662C12.883 11.2082 12.2456 10.9683 11.4901 10.9683H4.48181V9.56835H11.6405L11.7847 9.5769C12.374 9.61209 12.9119 9.75155 13.3834 9.99143C13.8167 10.2119 14.1961 10.5177 14.511 10.9006C15.0314 11.5332 15.3682 12.3734 15.4742 13.2924H14.07Z" fill="#4C40E6"/>
<path fill-rule="evenodd" clip-rule="evenodd" d="M8.63401 6.49942C8.63401 6.20557 8.88286 5.98828 9.16604 5.98828C9.44593 5.98828 9.69806 6.20023 9.69806 6.49942V8.7764L11.6788 8.77653L11.8318 8.78596C13.1779 8.86631 14.3202 9.42134 15.1229 10.3972C15.8113 11.2341 16.2233 12.3583 16.2921 13.56L16.3221 14.0844H13.3408L13.308 13.6236C13.308 13.6236 13.308 13.6236 13.308 13.6236C13.2626 12.9882 13.074 12.5248 12.7713 12.2198C12.4759 11.9222 12.0533 11.7603 11.4902 11.7603H3.6897V8.77598L8.63401 8.77632V6.49942ZM9.16604 6.38828C9.07993 6.38828 9.03401 6.4496 9.03401 6.49942V8.9686L9.03413 8.97308L9.03743 9.17634L4.0897 9.17601V11.3603H11.4902C12.1324 11.3603 12.6673 11.5473 13.0552 11.938C13.4461 12.3319 13.6573 12.8984 13.707 13.5951L13.7133 13.6844H15.8986L15.8927 13.5828C15.8281 12.4547 15.4417 11.4145 14.8139 10.6513C14.0879 9.76866 13.0528 9.25957 11.8081 9.18526C11.8081 9.18525 11.8081 9.18526 11.8081 9.18526L11.661 9.17653L9.29464 9.17637L9.29795 8.97313L9.29806 8.96865V6.49942C9.29806 6.44802 9.25289 6.38828 9.16604 6.38828ZM9.03394 8.96637C9.03393 8.96608 9.03393 8.96618 9.03394 8.96637V8.96637ZM4.28186 9.36816H11.6524L11.7966 9.37706C12.4102 9.41369 12.9755 9.55925 13.4742 9.81297C13.9325 10.0462 14.3335 10.3697 14.6655 10.7734C15.2136 11.4397 15.5631 12.3175 15.6729 13.2693L15.6987 13.4922H13.8951L13.8718 13.3189C13.7844 12.6699 13.552 12.1658 13.1915 11.8027C12.7854 11.3935 12.2028 11.1681 11.4902 11.1681H4.28186V9.36816ZM4.68186 9.76816V10.7681H11.4902C12.2885 10.7681 12.9807 11.0225 13.4754 11.5209C13.8743 11.9228 14.1278 12.454 14.2412 13.0922H15.2449C15.1173 12.2946 14.8076 11.5757 14.3566 11.0275C14.0589 10.6655 13.701 10.3772 13.2928 10.1695C12.8485 9.94345 12.3379 9.81009 11.7729 9.77635L11.6347 9.76816H4.68186Z" fill="#4C40E6"/>
<path d="M7.50668 5.21971H10.8252C11.0067 5.21971 11.158 5.07107 11.158 4.88769C11.158 4.70305 11.009 4.55566 10.8252 4.55566H7.50668C7.32515 4.55566 7.17383 4.70433 7.17383 4.88769C7.17383 5.07235 7.32287 5.21971 7.50668 5.21971Z" fill="#4C40E6"/>
<path fill-rule="evenodd" clip-rule="evenodd" d="M6.97388 4.88749C6.97388 4.59232 7.21611 4.35547 7.50673 4.35547H10.8253C11.1186 4.35547 11.3581 4.59145 11.3581 4.88749C11.3581 5.1827 11.1159 5.41951 10.8253 5.41951H7.50673C7.21344 5.41951 6.97388 5.18359 6.97388 4.88749ZM7.50673 4.75547C7.43429 4.75547 7.37388 4.81595 7.37388 4.88749C7.37388 4.96071 7.43239 5.01951 7.50673 5.01951H10.8253C10.8977 5.01951 10.9581 4.95906 10.9581 4.88749C10.9581 4.81427 10.8996 4.75547 10.8253 4.75547H7.50673Z" fill="#4C40E6"/>
</svg>
