<svg width="20" height="20" viewBox="0 0 20 20" fill="none" xmlns="http://www.w3.org/2000/svg">
<path d="M10 0C15.5234 0 20 4.47656 20 10C20 15.5234 15.5234 20 10 20C4.47656 20 0 15.5234 0 10C0 4.47656 4.47656 0 10 0Z" fill="#4C40E6"/>
<path d="M9.10156 14.7734C8.66406 14.7214 8.26562 14.6146 7.90625 14.4531C7.55208 14.2865 7.24479 14.0807 6.98438 13.8359C6.72396 13.5859 6.51042 13.3021 6.34375 12.9844C6.17708 12.6667 6.0625 12.3307 6 11.9766L7.00781 11.7188C7.1276 12.2448 7.35417 12.7031 7.6875 13.0938C8.02604 13.4792 8.4974 13.7266 9.10156 13.8359V9.71875C8.66406 9.55729 8.27344 9.39323 7.92969 9.22656C7.59115 9.05469 7.30208 8.85938 7.0625 8.64062C6.82292 8.42188 6.64062 8.17188 6.51562 7.89062C6.39583 7.60417 6.33594 7.27083 6.33594 6.89062C6.33594 6.55729 6.39844 6.24479 6.52344 5.95312C6.65365 5.66146 6.83594 5.39844 7.07031 5.16406C7.30469 4.92448 7.59115 4.73177 7.92969 4.58594C8.27344 4.4349 8.66406 4.33333 9.10156 4.28125V3H10.1797V4.28125C10.5703 4.33333 10.9297 4.44792 11.2578 4.625C11.5911 4.80208 11.8776 5.01823 12.1172 5.27344C12.3568 5.52865 12.5495 5.8125 12.6953 6.125C12.8411 6.43229 12.9297 6.74479 12.9609 7.0625L11.8438 7.25781C11.776 6.79948 11.6068 6.38021 11.3359 6C11.0651 5.61979 10.6797 5.3776 10.1797 5.27344V8.95312C11.1276 9.30208 11.8385 9.70573 12.3125 10.1641C12.7865 10.6172 13.0234 11.2266 13.0234 11.9922C13.0234 12.3464 12.9583 12.6797 12.8281 12.9922C12.7031 13.3047 12.5182 13.5859 12.2734 13.8359C12.0286 14.0807 11.7292 14.2891 11.375 14.4609C11.026 14.6276 10.6276 14.7318 10.1797 14.7734V16.1016H9.10156V14.7734ZM11.8594 12.0859C11.8594 11.638 11.7161 11.2578 11.4297 10.9453C11.1484 10.6276 10.7318 10.3464 10.1797 10.1016V13.8359C10.7839 13.7474 11.2109 13.5417 11.4609 13.2188C11.7161 12.8906 11.849 12.513 11.8594 12.0859ZM7.4375 6.875C7.4375 7.27604 7.58594 7.61198 7.88281 7.88281C8.1849 8.14844 8.59115 8.38281 9.10156 8.58594V5.25781C8.8151 5.29948 8.5651 5.3776 8.35156 5.49219C8.13802 5.60156 7.96354 5.73177 7.82812 5.88281C7.69792 6.02865 7.59896 6.1875 7.53125 6.35938C7.46875 6.53125 7.4375 6.70312 7.4375 6.875Z" fill="white"/>
</svg>
