<svg width="25" height="24" viewBox="0 0 25 24" fill="none" xmlns="http://www.w3.org/2000/svg">
<path d="M0.446533 9.81333V7.13333L18.4465 0V9.81333H0.446533Z" fill="#538200"/>
<path d="M0.446533 7.13336V23.9334H24.4465V7.13336H0.446533ZM12.7132 18.16L10.0465 15.4934L12.7132 12.8267L15.3798 15.4934L12.7132 18.16Z" fill="#8ECD1E"/>
<path d="M12.7133 9.81331C11.5788 9.81331 10.4698 10.1499 9.52663 10.7805C8.5835 11.4111 7.84869 12.3073 7.41514 13.3557C6.98159 14.4041 6.86882 15.5575 7.09112 16.6701C7.31343 17.7826 7.8608 18.8042 8.66396 19.6054C9.46711 20.4067 10.4899 20.9517 11.603 21.1714C12.716 21.3911 13.8692 21.2757 14.9166 20.8397C15.964 20.4037 16.8585 19.6668 17.4869 18.7222C18.1153 17.7776 18.4493 16.6678 18.4466 15.5333C18.4466 14.781 18.2982 14.0361 18.0099 13.3413C17.7217 12.6464 17.2991 12.0153 16.7666 11.4839C16.234 10.9526 15.6019 10.5316 14.9063 10.2449C14.2108 9.95821 13.4656 9.81156 12.7133 9.81331ZM12.7133 18.16L10.0466 15.4933L12.7133 12.8266L15.3799 15.4933L12.7133 18.16Z" fill="#538200"/>
</svg>
