<svg width="116" height="35" viewBox="0 0 116 35" fill="none" xmlns="http://www.w3.org/2000/svg">
<path d="M70.7964 17.2531L70.4239 16.8201C70.3186 16.6971 70.2639 16.5407 70.27 16.381C70.2762 16.2212 70.3429 16.0692 70.4573 15.9542V15.9542L78.6575 7.69995H75.3784L66.9239 16.0192L66.8636 16.0776L65.6613 17.2596C65.5767 17.3679 65.4602 17.4487 65.3273 17.4913C65.1943 17.534 65.0512 17.5364 64.9167 17.4984C64.7823 17.4604 64.663 17.3837 64.5744 17.2784C64.4859 17.1732 64.4324 17.0443 64.421 16.9089V16.9089V7.69995H61.5366V26.9945H64.4187V22.0156L67.6109 18.92C67.6722 18.86 67.7452 18.8124 67.8256 18.7801C67.9061 18.7477 67.9923 18.7313 68.0794 18.7316C68.1768 18.7318 68.2729 18.7527 68.3612 18.7927C68.4494 18.8327 68.5276 18.8909 68.5902 18.9632L75.8468 26.9945H79.2152L71.7155 18.316L70.7964 17.2531Z" fill="white"/>
<path d="M92.6509 24.3082C91.4017 24.6697 90.1043 24.8506 88.8007 24.845C86.8599 24.845 85.3988 24.5506 84.4173 23.9618C83.4358 23.373 82.945 22.5554 82.945 21.5091C82.9228 21.0451 83.0321 20.584 83.261 20.176C83.4899 19.768 83.8296 19.4287 84.2433 19.195C85.1088 18.6798 86.2985 18.4222 87.8125 18.4222H93.0413L93.1038 18.3161L93.1172 18.2923L93.7306 17.2532L93.1172 16.1708L93.0681 16.0777L93.0547 16.0582H87.924C87.6447 16.059 87.3655 16.046 87.0875 16.0193C86.2929 15.9753 85.5256 15.7224 84.8679 15.2876C84.1645 14.7652 83.812 14.0277 83.8105 13.0752C83.809 12.1227 84.2708 11.3463 85.1958 10.7459C86.1193 10.1484 87.4578 9.84968 89.2111 9.84968C91.2167 9.82482 93.1978 10.2791 94.9798 11.1724L95.8164 8.96862C94.8544 8.45513 93.8192 8.08307 92.7446 7.86459C91.5471 7.60693 90.324 7.47771 89.0974 7.47926C87.3262 7.47926 85.8264 7.72316 84.598 8.21095C83.3696 8.69875 82.4513 9.34818 81.843 10.1592C81.2426 10.9493 80.9232 11.9074 80.9329 12.889C80.9126 13.7942 81.1604 14.686 81.6467 15.4586C81.7718 15.6565 81.9136 15.844 82.0705 16.0193C82.0884 16.0388 82.104 16.0582 82.1241 16.0777C82.5469 16.5287 83.063 16.888 83.6388 17.132C83.5205 17.1709 83.4045 17.2142 83.2908 17.2597C82.6521 17.5054 82.0671 17.8661 81.5664 18.3226C81.3844 18.4885 81.2144 18.6664 81.0578 18.8551C80.3904 19.663 80.0374 20.6731 80.0607 21.7083C80.0443 22.7439 80.3904 23.7543 81.0422 24.5744C81.6965 25.4028 82.6676 26.0523 83.9555 26.5227C85.2434 26.9932 86.8101 27.2277 88.6557 27.2263C90.2075 27.2376 91.7531 27.0358 93.2466 26.6267C94.485 26.3127 95.6437 25.7549 96.6507 24.9879L95.6714 22.8361C94.7731 23.5133 93.747 24.0134 92.6509 24.3082V24.3082Z" fill="white"/>
<path d="M109.352 18.316L108.924 17.751C108.908 17.7293 108.893 17.7098 108.877 17.686C108.784 17.5557 108.72 17.4084 108.688 17.2531C108.672 17.1747 108.663 17.0949 108.663 17.015C108.666 16.7726 108.744 16.5366 108.886 16.3374C108.886 16.3222 108.908 16.3071 108.92 16.2919L109.089 16.0754L109.134 16.017L115.489 7.70428H112.337L107.3 14.3891C107.239 14.4762 107.157 14.5476 107.061 14.597C106.965 14.6464 106.858 14.6724 106.749 14.6727C106.638 14.6745 106.529 14.6495 106.43 14.6C106.332 14.5505 106.247 14.4781 106.185 14.3891L101.083 7.69995H97.8016L104.101 16.0192L104.146 16.0776L104.38 16.3872C104.537 16.5942 104.622 16.8444 104.623 17.1015C104.623 17.1513 104.623 17.2011 104.623 17.2509C104.605 17.403 104.555 17.5501 104.478 17.6839C104.46 17.7176 104.44 17.7501 104.418 17.7813C104.374 17.8445 104.324 17.9033 104.269 17.9566L103.996 18.3138L97.3376 26.9945H100.657L106.075 19.7664C106.078 19.7601 106.082 19.7543 106.087 19.7491C106.148 19.6642 106.23 19.5949 106.325 19.5472C106.421 19.4994 106.526 19.4744 106.633 19.4744C106.74 19.4744 106.846 19.4994 106.941 19.5472C107.036 19.5949 107.118 19.6642 107.18 19.7491L112.683 26.9859H116L109.352 18.316Z" fill="white"/>
<path d="M50.4341 18.6017C50.4966 18.529 50.5747 18.4704 50.6629 18.43C50.7511 18.3896 50.8474 18.3684 50.945 18.3679H56.2787V18.316H56.3567L56.9836 17.2531L56.3144 16.0711H53.1021C53.0404 16.0708 52.9806 16.0502 52.9326 16.0127C52.9085 15.9948 52.8881 15.9728 52.8723 15.9477C52.8446 15.9049 52.8299 15.8554 52.83 15.8048C52.8293 15.7526 52.8449 15.7013 52.8746 15.6576L52.8924 15.636L58.0677 9.38198V7.69995H41.7432V10.0985H54.2353L49.524 15.7767V15.7875L49.4771 15.8352C49.3833 15.926 49.2637 15.9878 49.1336 16.0127C49.0921 16.017 49.0502 16.017 49.0087 16.0127C48.9656 16.016 48.9224 16.016 48.8793 16.0127H41.6473V18.316H46.8471C46.8832 18.3157 46.919 18.3224 46.9525 18.3357C46.9859 18.3489 47.0162 18.3685 47.0418 18.3933C47.0673 18.4181 47.0875 18.4476 47.1012 18.48C47.1149 18.5124 47.1218 18.5472 47.1215 18.5822C47.1214 18.6321 47.1067 18.6809 47.0791 18.723C47.0737 18.7313 47.0678 18.7392 47.0613 18.7468L41.645 25.2606V26.9924H58.4983V24.596H45.493L50.4341 18.6017Z" fill="white"/>
<path d="M28.5171 8.58981C30.1502 10.5822 31.1798 12.9762 31.4907 15.5041C31.4907 15.5474 31.5018 15.5885 31.5085 15.634C31.5195 15.7316 31.5673 15.8218 31.6426 15.8873C31.718 15.9528 31.8156 15.989 31.9167 15.989H34.3973C34.4545 15.9892 34.511 15.9778 34.5634 15.9557C34.6158 15.9336 34.6628 15.9012 34.7016 15.8605C34.7404 15.8198 34.7701 15.7717 34.7888 15.7193C34.8074 15.6669 34.8146 15.6113 34.81 15.556C34.8089 15.5387 34.8089 15.5214 34.81 15.5041C34.5925 12.9779 33.7895 10.5322 32.461 8.34952C32.1934 7.9079 31.9056 7.48 31.5977 7.06581C31.2057 6.53754 30.7826 6.03159 30.3307 5.55047C29.6361 4.80778 28.8738 4.12745 28.0531 3.51775C27.9981 3.47157 27.9401 3.42827 27.8791 3.38786C24.9828 1.26801 21.4742 0.083113 17.8475 0C17.698 0 17.5486 0 17.4013 0H17.0511C15.8573 0.0254492 14.6695 0.170538 13.5065 0.432954C11.1269 0.956495 8.88818 1.96198 6.93692 3.38354L6.77631 3.5026C5.47437 4.47417 4.32012 5.61906 3.34766 6.90345C3.01234 7.34229 2.70038 7.79748 2.41298 8.26726C1.04954 10.4689 0.22458 12.9446 0.00155506 15.5041C0.00045013 15.5214 0.00045013 15.5387 0.00155506 15.556C-0.0034055 15.6112 0.00353274 15.6667 0.0219272 15.7191C0.0403216 15.7715 0.0697683 15.8196 0.108389 15.8604C0.147009 15.9011 0.193955 15.9336 0.246233 15.9557C0.29851 15.9779 0.35497 15.9892 0.412011 15.989H2.90152C3.00307 15.9896 3.10124 15.9536 3.17705 15.888C3.25287 15.8225 3.30094 15.7319 3.31197 15.634C3.31197 15.5885 3.31197 15.5474 3.32759 15.5041C3.3432 15.4608 3.32759 15.398 3.34766 15.3461C3.51899 14.0641 3.87804 12.8125 4.41396 11.6291C5.37625 9.48743 6.88579 7.61943 8.7997 6.20192C10.7136 4.7844 12.9686 3.86426 15.3513 3.52857C15.3913 3.52427 15.4318 3.53058 15.4685 3.54682C15.5051 3.56307 15.5366 3.58864 15.5595 3.62084C15.5823 3.65303 15.5958 3.69063 15.5984 3.72966C15.601 3.76868 15.5927 3.80766 15.5743 3.84247L15.5565 3.87277L13.8321 6.78872L11.2757 11.0685L9.57366 13.9303L8.63898 15.5041L8.34898 15.989L7.79353 16.922C7.76827 16.9655 7.75162 17.0133 7.74445 17.0627V17.1515C7.75202 17.2008 7.76864 17.2485 7.79353 17.2922L8.34898 18.2252L8.63898 18.7101L9.57366 20.2839L11.2757 23.1436L13.8321 27.4255L15.5654 30.3414L15.5833 30.3696C15.6022 30.4044 15.611 30.4437 15.6087 30.483C15.6064 30.5224 15.593 30.5604 15.57 30.5929C15.5471 30.6254 15.5154 30.6513 15.4784 30.6676C15.4414 30.6839 15.4006 30.6902 15.3602 30.6856C14.3286 30.5421 13.317 30.2865 12.3442 29.9236C10.5885 29.2697 8.98379 28.2844 7.62297 27.0247C6.26214 25.7651 5.1722 24.2561 4.41619 22.585C3.87872 21.4013 3.51889 20.1488 3.34766 18.866C3.33874 18.814 3.33205 18.7621 3.32759 18.7101C3.32759 18.6668 3.31643 18.6235 3.31197 18.5802C3.30094 18.4823 3.25287 18.3917 3.17705 18.3262C3.10124 18.2606 3.00307 18.2246 2.90152 18.2252H0.414242C0.357201 18.225 0.30074 18.2363 0.248463 18.2585C0.196186 18.2806 0.14924 18.3131 0.110619 18.3538C0.071999 18.3946 0.0425523 18.4427 0.0241579 18.4951C0.00576348 18.5475 -0.00117476 18.603 0.0037858 18.6582C0.00268087 18.6755 0.00268087 18.6928 0.0037858 18.7101C0.223429 21.2684 1.04374 23.7439 2.40183 25.9469C2.68975 26.4164 3.0017 26.8715 3.33651 27.3107C3.71158 27.806 4.11447 28.2808 4.54334 28.733C5.22694 29.4529 5.97329 30.1141 6.77408 30.7094L6.93469 30.8307C8.06015 31.6511 9.28412 32.3358 10.5797 32.8699C11.5243 33.2601 12.503 33.5673 13.5042 33.7877C14.6688 34.0434 15.8573 34.1827 17.0511 34.2034H17.4058C17.5575 34.2034 17.7069 34.2034 17.8519 34.2034C21.4774 34.1232 24.986 32.9438 27.8858 30.8307C27.946 30.7874 28.004 30.7462 28.0598 30.7008C28.8799 30.0905 29.6422 29.4102 30.3374 28.668C30.7888 28.1865 31.2118 27.6806 31.6044 27.1527C31.9123 26.74 32.2 26.3121 32.4677 25.869C33.7946 23.6896 34.5976 21.2477 34.8167 18.7253C34.8156 18.708 34.8156 18.6906 34.8167 18.6733C34.8213 18.618 34.8141 18.5625 34.7954 18.5101C34.7768 18.4577 34.7471 18.4096 34.7083 18.3689C34.6695 18.3282 34.6225 18.2957 34.5701 18.2736C34.5177 18.2515 34.4611 18.2402 34.404 18.2404H31.9167C31.8156 18.2403 31.718 18.2765 31.6426 18.342C31.5673 18.4076 31.5195 18.4978 31.5085 18.5954C31.5085 18.6387 31.4974 18.682 31.4907 18.7253C31.3339 20.027 30.9822 21.2996 30.4467 22.5028C29.5159 24.6097 28.0578 26.4578 26.2048 27.8795C24.3518 29.3013 22.1623 30.2516 19.8351 30.6445C19.7523 30.6582 19.6673 30.6469 19.5914 30.612C19.5156 30.5772 19.4527 30.5205 19.4112 30.4497L19.3555 30.3544L17.4549 27.1635L17.4013 27.0596L15.7171 24.2281L13.1763 19.9527L12.7926 19.3033C12.7567 19.2424 12.7378 19.1735 12.738 19.1034C12.7381 19.0333 12.7572 18.9645 12.7933 18.9038C12.8294 18.8431 12.8813 18.7926 12.9439 18.7575C13.0064 18.7224 13.0773 18.7038 13.1495 18.7036H18.8825C18.9209 18.7032 18.9585 18.6933 18.9917 18.6747C19.0249 18.6561 19.0526 18.6295 19.0721 18.5975L19.2952 18.2187L19.8931 17.2121C19.9147 17.1783 19.9262 17.1393 19.9265 17.0995C19.9262 17.0597 19.9147 17.0208 19.8931 16.9869L19.2975 15.989L19.0744 15.6102C19.0548 15.5782 19.0271 15.5516 18.9939 15.533C18.9607 15.5144 18.9231 15.5045 18.8848 15.5041H13.1495C13.0772 15.5035 13.0064 15.4845 12.9439 15.4491C12.8815 15.4137 12.8297 15.3631 12.7936 15.3023C12.7575 15.2415 12.7385 15.1726 12.7383 15.1024C12.7381 15.0322 12.7568 14.9633 12.7926 14.9023L13.1763 14.2528L15.7216 9.98175L17.4013 7.14374L17.4504 7.05931L19.351 3.86628L19.4068 3.77319C19.4482 3.70238 19.5111 3.64568 19.587 3.61082C19.6628 3.57596 19.7479 3.56463 19.8306 3.57836C23.2585 4.15863 26.3479 5.93953 28.5126 8.58331L28.5171 8.58981Z" fill="white"/>
<path d="M23.315 17.2961L22.7305 18.2118L22.4271 18.6881L21.6085 19.987L19.0721 23.968C19.0354 24.0287 19.0161 24.0978 19.0161 24.1682C19.0161 24.2386 19.0354 24.3077 19.0721 24.3684L20.4105 26.7995C20.445 26.8612 20.4956 26.913 20.5573 26.9497C20.6189 26.9865 20.6894 27.0068 20.7617 27.0088C20.834 27.0108 20.9055 26.9943 20.9692 26.961C21.0329 26.9277 21.0864 26.8787 21.1244 26.819L23.4109 23.2211L25.2423 20.3485L26.2239 18.8028L26.5272 18.3266L27.1095 17.4087C27.1367 17.3665 27.1549 17.3194 27.163 17.2702C27.163 17.2702 27.163 17.2507 27.163 17.2399V17.2096C27.1641 17.2002 27.1641 17.1908 27.163 17.1814C27.1573 17.1312 27.1414 17.0827 27.1161 17.0385L26.5897 16.0904L26.3242 15.586L25.4319 13.9884L23.7767 11.0097L21.7111 7.29275C21.6766 7.23105 21.626 7.17924 21.5644 7.1425C21.5027 7.10576 21.4322 7.08538 21.3599 7.08341C21.2876 7.08144 21.2161 7.09794 21.1524 7.13126C21.0888 7.16458 21.0352 7.21355 20.9972 7.27326L19.5026 9.62204C19.4671 9.68313 19.4484 9.75211 19.4484 9.82228C19.4484 9.89245 19.4671 9.96143 19.5026 10.0225L21.7824 14.1507L22.532 15.4842L22.8041 15.9756L23.3328 16.9238C23.3616 16.9774 23.3776 17.0366 23.3797 17.097V17.1273C23.3705 17.1874 23.3485 17.2449 23.315 17.2961Z" fill="white"/>
</svg>
