<svg width="22" height="22" viewBox="0 0 22 22" fill="none" xmlns="http://www.w3.org/2000/svg">
<path d="M21.9999 0.767212V12.2046H19.0838V3.68326H5.34598V15.3425H2.42993V0.767212H21.9999Z" fill="#8ECD1E"/>
<path fill-rule="evenodd" clip-rule="evenodd" d="M20.5421 19.2036H4.06639C2.53643 19.2036 1.29614 18.6379 1.29614 17.94V16.6764H1.55535H21.8634" fill="#8ECD1E"/>
<path d="M21.838 14.7363H0V17.6627C0 19.6749 1.77588 21.2327 3.8883 21.2327H21.838V14.7363ZM19.246 18.6406L3.8883 18.6406L3.86583 18.6405C3.12652 18.631 2.59205 18.1573 2.59205 17.6627V17.3284H19.246V18.6406Z" fill="#538200"/>
<path d="M10.1738 6.08032H7.58179V8.67237H10.1738V6.08032Z" fill="#538200"/>
<path d="M16.8483 6.08032H11.6318V8.67237H16.8483V6.08032Z" fill="#8ECD1E"/>
<path d="M16.8483 10.1624H11.6318V12.7544H16.8483V10.1624Z" fill="#8ECD1E"/>
<path d="M10.1738 10.1624H7.58179V12.7544H10.1738V10.1624Z" fill="#538200"/>
</svg>
