<svg width="20" height="23" viewBox="0 0 20 23" fill="none" xmlns="http://www.w3.org/2000/svg">
<path fill-rule="evenodd" clip-rule="evenodd" d="M15.7777 8.72224C15.7777 11.9132 13.1909 14.5 9.99995 14.5C6.80897 14.5 4.22217 11.9132 4.22217 8.72224C4.22217 5.53126 6.80897 2.94446 9.99995 2.94446C13.1909 2.94446 15.7777 5.53126 15.7777 8.72224ZM17.7777 8.72224C17.7777 13.0178 14.2955 16.5 9.99995 16.5C5.7044 16.5 2.22217 13.0178 2.22217 8.72224C2.22217 4.42669 5.7044 0.944458 9.99995 0.944458C14.2955 0.944458 17.7777 4.42669 17.7777 8.72224ZM19.8604 17.6284L17.8119 14.2788C17.0115 15.4158 15.943 16.3625 14.6903 17.0448C13.4376 17.7271 12.0345 18.1264 10.591 18.2116L12.6416 21.5622L12.7166 21.6704L12.8021 21.7628C12.9189 21.8741 13.0622 21.9575 13.22 22.006C13.3778 22.0545 13.5456 22.0668 13.7095 22.0418C13.8734 22.0168 14.0285 21.9552 14.1621 21.8622C14.2957 21.7692 14.4038 21.6475 14.4776 21.5071L15.8353 18.9148L18.8914 19.1016L19.0081 19.1026L19.1258 19.0918C19.2923 19.066 19.4497 19.0025 19.5844 18.9067C19.7192 18.8109 19.8273 18.6857 19.8996 18.5418C19.9718 18.398 20.006 18.2397 19.9991 18.0806C19.9923 17.9215 19.9447 17.7663 19.8604 17.6284ZM7.35874 21.5632L9.40728 18.2116C7.9641 18.1258 6.56154 17.7269 5.30937 17.0443C4.05719 16.3617 2.98937 15.4148 2.18947 14.2778L0.138846 17.6304L0.0867462 17.7287L0.045067 17.834C-0.0039507 17.9862 -0.0131431 18.1474 0.018277 18.3037C0.0496971 18.46 0.120793 18.6068 0.225477 18.7315C0.33016 18.8562 0.465311 18.9551 0.619354 19.0198C0.773398 19.0844 0.941743 19.1128 1.10997 19.1026L4.16402 18.9157L5.52277 21.5071L5.58945 21.6192L5.66864 21.7176C5.77771 21.8358 5.91511 21.9278 6.06942 21.9858C6.22373 22.0438 6.39048 22.0661 6.55581 22.051C6.72113 22.0359 6.88024 21.9838 7.0199 21.8989C7.15956 21.8141 7.27573 21.699 7.35874 21.5632Z" fill="#9197B0"/>
</svg>
