<svg xmlns="http://www.w3.org/2000/svg" viewBox="0 0 520 158.05"><g id="layer_2"><g id="layer_1-2"><path d="M317.36,79.7l-1.67-2a3,3,0,0,1,.15-4l0,0h0l36.76-38.13H337.9L300,74l-.27.27-5.39,5.46a3.1,3.1,0,0,1-5.56-1.62h0V35.57H275.85V124.7h12.92v-23l14.31-14.3a2.94,2.94,0,0,1,2.1-.87,3,3,0,0,1,2.29,1.07L340,124.7H355.1L321.48,84.61Z"/><path d="M415.33,112.29a59.48,59.48,0,0,1-17.26,2.48q-13.05,0-19.65-4.08t-6.6-11.33a11.74,11.74,0,0,1,5.82-10.69q5.82-3.57,16-3.57h23.44l.28-.49.06-.11,2.75-4.8-2.75-5-.22-.43-.06-.09h-23a37.12,37.12,0,0,1-3.75-.18,19.66,19.66,0,0,1-9.95-3.38Q375.71,67,375.7,60.4t6.21-10.76q6.21-4.14,18-4.14a54.82,54.82,0,0,1,25.86,6.11l3.75-10.18a49.73,49.73,0,0,0-13.77-5.1,75.08,75.08,0,0,0-16.35-1.78q-11.91,0-20.17,3.38t-12.35,9a20.91,20.91,0,0,0-4.08,12.61A21.86,21.86,0,0,0,366,71.41,19.46,19.46,0,0,0,367.9,74c.08.09.15.18.24.27a20,20,0,0,0,6.79,4.87c-.53.18-1.05.38-1.56.59a24.45,24.45,0,0,0-7.73,4.91,24.15,24.15,0,0,0-2.28,2.46,20.36,20.36,0,0,0-4.47,13.18,21.15,21.15,0,0,0,4.4,13.24q4.4,5.74,13.06,9t21.07,3.25A73.71,73.71,0,0,0,418,123a41.85,41.85,0,0,0,15.26-7.57l-4.39-9.94A39.09,39.09,0,0,1,415.33,112.29Z"/><path d="M490.2,84.61,488.28,82c-.07-.1-.14-.19-.21-.3a5.38,5.38,0,0,1-.85-2,5.7,5.7,0,0,1-.11-1.1,5.62,5.62,0,0,1,1-3.13c0-.07.1-.14.15-.21l.76-1,.2-.27,28.49-38.4H503.58L481,66.47a3,3,0,0,1-2.47,1.31A3,3,0,0,1,476,66.47l-22.87-30.9H438.42L466.66,74l.2.27,1.05,1.43A5.6,5.6,0,0,1,469,79c0,.23,0,.46,0,.69a5.41,5.41,0,0,1-.65,2,4.12,4.12,0,0,1-.27.45,5.15,5.15,0,0,1-.67.81l-1.22,1.65L436.34,124.7h14.88l24.29-33.39a.35.35,0,0,1,.05-.08,3,3,0,0,1,4.9,0l24.67,33.43H520Z"/><path d="M226.08,85.93a3,3,0,0,1,2.29-1.08h23.91v-.24h.35l2.81-4.91-3-5.46h-14.4a1.22,1.22,0,0,1-.76-.27,1.1,1.1,0,0,1-.27-.3,1.24,1.24,0,0,1-.19-.66,1.21,1.21,0,0,1,.2-.68l.08-.1L260.3,43.34V35.57H187.12V46.65h56L222,72.88l0,.05-.21.22a3,3,0,0,1-1.54.82,2.59,2.59,0,0,1-.56,0,3.68,3.68,0,0,1-.58,0H186.69V84.61H210a1.22,1.22,0,0,1,1.23,1.23,1.21,1.21,0,0,1-.19.65,1,1,0,0,1-.08.11l-24.28,30.09v8h75.55V113.62H203.93Z"/><path d="M127.83,39.68a63.37,63.37,0,0,1,13.33,31.94c0,.2.05.39.08.6a1.84,1.84,0,0,0,1.83,1.64h11.12a1.85,1.85,0,0,0,1.85-2,1.94,1.94,0,0,1,0-.24,77.71,77.71,0,0,0-10.53-33.05q-1.8-3.06-3.87-5.93a78.44,78.44,0,0,0-5.68-7,77,77,0,0,0-10.21-9.39q-.37-.32-.78-.6A77.73,77.73,0,0,0,80,0c-.67,0-1.34,0-2,0L76.43,0A77.7,77.7,0,0,0,60.54,2,77.65,77.65,0,0,0,31.09,15.63l-.72.55A78.31,78.31,0,0,0,15,31.89a74,74,0,0,0-4.19,6.3A77.59,77.59,0,0,0,0,71.62a1.94,1.94,0,0,0,0,.24,1.84,1.84,0,0,0,1.84,2H13a1.84,1.84,0,0,0,1.84-1.64c0-.21,0-.4.07-.6s0-.49.09-.73a62.73,62.73,0,0,1,4.78-17.17h0A63.43,63.43,0,0,1,68.81,16.3h0a1,1,0,0,1,1,1.45l-.08.14L62,31.36,50.54,51.13,42.91,64.35l-4.19,7.27-1.3,2.24-2.49,4.31a1.85,1.85,0,0,0-.22.65h0v.41h0a1.93,1.93,0,0,0,.22.65l2.49,4.31,1.3,2.24,4.19,7.27,7.63,13.21L62,126.69l7.77,13.47.08.13a1,1,0,0,1-1,1.46h0a62.35,62.35,0,0,1-13.52-3.52,63.77,63.77,0,0,1-35.54-33.9h0A62.53,62.53,0,0,1,15,87.15q-.06-.36-.09-.72c0-.2-.05-.4-.07-.6A1.84,1.84,0,0,0,13,84.19H1.85a1.84,1.84,0,0,0-1.84,2,1.94,1.94,0,0,0,0,.24,77.68,77.68,0,0,0,10.75,33.43,75.65,75.65,0,0,0,4.19,6.3,77.34,77.34,0,0,0,5.41,6.57,78.59,78.59,0,0,0,10,9.13l.72.56a77.93,77.93,0,0,0,16.34,9.42,76.89,76.89,0,0,0,13.11,4.24A78.41,78.41,0,0,0,76.43,158l1.59,0c.68,0,1.35,0,2,0A77.86,77.86,0,0,0,125,142.42c.27-.2.53-.39.78-.6a77.67,77.67,0,0,0,10.21-9.39,79.89,79.89,0,0,0,5.68-7q2.07-2.86,3.87-5.93a77.71,77.71,0,0,0,10.53-33,1.94,1.94,0,0,1,0-.24,1.85,1.85,0,0,0-1.85-2H143.07a1.84,1.84,0,0,0-1.83,1.64c0,.2-.05.4-.08.6a62.23,62.23,0,0,1-4.68,17.45,63.62,63.62,0,0,1-47.57,37.61,1.83,1.83,0,0,1-1.9-.9l-.25-.44-8.52-14.74L78,125l-7.55-13.08L59.06,92.17l-1.72-3a1.85,1.85,0,0,1,1.6-2.77h25.7a1,1,0,0,0,.85-.49l1-1.75,2.68-4.65a1,1,0,0,0,.15-.52,1,1,0,0,0-.15-.52L86.5,73.86l-1-1.75a1,1,0,0,0-.85-.49H58.94a1.86,1.86,0,0,1-1.6-2.78l1.72-3L70.47,46.11,78,33l.22-.39,8.52-14.75.25-.43a1.83,1.83,0,0,1,1.9-.9,63.69,63.69,0,0,1,38.92,23.12Z"/><path d="M104.51,79.9l-2.62,4.23-1.36,2.2-3.67,6L85.49,110.72a1.83,1.83,0,0,0,0,1.85l6,11.23a1.85,1.85,0,0,0,3.2.09l10.25-16.62L113.15,94l4.4-7.14,1.36-2.2,2.61-4.24a1.72,1.72,0,0,0,.24-.64h0s0-.09,0-.14v-.14a.57.57,0,0,0,0-.13h0a1.76,1.76,0,0,0-.21-.66l-2.36-4.38L118,72l-4-7.38-7.42-13.76L97.32,33.69a1.85,1.85,0,0,0-3.2-.09l-6.7,10.85a1.88,1.88,0,0,0,0,1.85L97.64,65.37,101,71.53l1.22,2.27,2.37,4.38a1.87,1.87,0,0,1,.21.8v.14A2,2,0,0,1,104.51,79.9Z"/></g></g></svg>