<svg width="16" height="18" viewBox="0 0 16 18" fill="none" xmlns="http://www.w3.org/2000/svg">
<path d="M8 0C7.01109 0 6.04439 0.293244 5.22215 0.842651C4.3999 1.39206 3.75904 2.17295 3.3806 3.08658C3.00216 4.00021 2.90315 5.00554 3.09608 5.97545C3.289 6.94535 3.76521 7.83627 4.46447 8.53553C5.16374 9.23479 6.05465 9.711 7.02455 9.90392C7.99446 10.0969 8.99979 9.99783 9.91343 9.6194C10.8271 9.24096 11.608 8.60009 12.1574 7.77785C12.7068 6.9556 13 5.98891 13 5C13 3.67392 12.4732 2.40215 11.5355 1.46447C10.5979 0.526783 9.32608 0 8 0ZM8 7.29167L5.70833 5L8 2.70833L10.2917 5L8 7.29167Z" fill="#767E9C"/>
<path d="M16 18V13C16 12.4477 15.5523 12 15 12L1 12C0.447715 12 0 12.4477 0 13V18H16Z" fill="#ADB1C3"/>
</svg>
